<svg version="1.2" xmlns="http://www.w3.org/2000/svg" viewBox="0 0 780 380">
    <title>slope_chart</title>
    <style>
        tspan {
            white-space: pre;
        }
        .linea {
            fill: none;
            stroke: #78909c;
            opacity: 0.4;
        }
        .punto {
            fill: #546e7a;
        }
        .t {
            font-size: 10px;
            fill: #37474f;
            font-family: Helvetica, Arial, sans-serif;
        }
    </style>
    <g id="viz">
        <g>
            <g>
                <path class="linea" d="m30 51l720 23.3" />
                <path class="punto" d="m30 53.5c-1.4 0-2.5-1.1-2.5-2.5 0-1.4 1.1-2.5 2.5-2.5 1.4 0 2.5 1.1 2.5 2.5 0 1.4-1.1 2.5-2.5 2.5z" />
                <path class="punto" d="m750 76.8c-1.4 0-2.5-1.1-2.5-2.5 0-1.3 1.1-2.5 2.5-2.5 1.4 0 2.5 1.2 2.5 2.5 0 1.4-1.1 2.5-2.5 2.5z" />
            </g>
            <g>
                <path class="linea" d="m30 74.3l720-58.3" />
                <path class="punto" d="m30 76.8c-1.4 0-2.5-1.1-2.5-2.5 0-1.3 1.1-2.5 2.5-2.5 1.4 0 2.5 1.2 2.5 2.5 0 1.4-1.1 2.5-2.5 2.5z" />
                <path class="punto" d="m750 18.5c-1.4 0-2.5-1.1-2.5-2.5 0-1.4 1.1-2.5 2.5-2.5 1.4 0 2.5 1.1 2.5 2.5 0 1.4-1.1 2.5-2.5 2.5z" />
            </g>
            <g>
                <path class="linea" d="m30 132.7l720-58.4" />
                <path class="punto" d="m30 135.2c-1.4 0-2.5-1.2-2.5-2.5 0-1.4 1.1-2.5 2.5-2.5 1.4 0 2.5 1.1 2.5 2.5 0 1.3-1.1 2.5-2.5 2.5z" />
                <path class="punto" d="m750 76.8c-1.4 0-2.5-1.1-2.5-2.5 0-1.3 1.1-2.5 2.5-2.5 1.4 0 2.5 1.2 2.5 2.5 0 1.4-1.1 2.5-2.5 2.5z" />
            </g>
            <g>
                <path class="linea" d="m30 74.3l720 70" />
                <path class="punto" d="m30 76.8c-1.4 0-2.5-1.1-2.5-2.5 0-1.3 1.1-2.5 2.5-2.5 1.4 0 2.5 1.2 2.5 2.5 0 1.4-1.1 2.5-2.5 2.5z" />
                <path class="punto" d="m750 146.8c-1.4 0-2.5-1.1-2.5-2.5 0-1.3 1.1-2.5 2.5-2.5 1.4 0 2.5 1.2 2.5 2.5 0 1.4-1.1 2.5-2.5 2.5z" />
            </g>
            <g>
                <path class="linea" d="m30 132.7l720-116.7" />
                <path class="punto" d="m30 135.2c-1.4 0-2.5-1.2-2.5-2.5 0-1.4 1.1-2.5 2.5-2.5 1.4 0 2.5 1.1 2.5 2.5 0 1.3-1.1 2.5-2.5 2.5z" />
                <path class="punto" d="m750 18.5c-1.4 0-2.5-1.1-2.5-2.5 0-1.4 1.1-2.5 2.5-2.5 1.4 0 2.5 1.1 2.5 2.5 0 1.4-1.1 2.5-2.5 2.5z" />
            </g>
            <g>
                <path class="linea" d="m30 97.7l720 151.6" />
                <path class="punto" d="m30 100.2c-1.4 0-2.5-1.2-2.5-2.5 0-1.4 1.1-2.5 2.5-2.5 1.4 0 2.5 1.1 2.5 2.5 0 1.3-1.1 2.5-2.5 2.5z" />
                <path class="punto" d="m750 251.8c-1.4 0-2.5-1.1-2.5-2.5 0-1.3 1.1-2.5 2.5-2.5 1.4 0 2.5 1.2 2.5 2.5 0 1.4-1.1 2.5-2.5 2.5z" />
            </g>
            <g>
                <path class="linea" d="m30 74.3l720-58.3" />
                <path class="punto" d="m30 76.8c-1.4 0-2.5-1.1-2.5-2.5 0-1.3 1.1-2.5 2.5-2.5 1.4 0 2.5 1.2 2.5 2.5 0 1.4-1.1 2.5-2.5 2.5z" />
                <path class="punto" d="m750 18.5c-1.4 0-2.5-1.1-2.5-2.5 0-1.4 1.1-2.5 2.5-2.5 1.4 0 2.5 1.1 2.5 2.5 0 1.4-1.1 2.5-2.5 2.5z" />
            </g>
            <g>
                <path class="linea" d="m30 27.7l720 338.3" />
                <path class="punto" d="m30 30.2c-1.4 0-2.5-1.2-2.5-2.5 0-1.4 1.1-2.5 2.5-2.5 1.4 0 2.5 1.1 2.5 2.5 0 1.3-1.1 2.5-2.5 2.5z" />
                <path class="punto" d="m750 368.5c-1.4 0-2.5-1.1-2.5-2.5 0-1.4 1.1-2.5 2.5-2.5 1.4 0 2.5 1.1 2.5 2.5 0 1.4-1.1 2.5-2.5 2.5z" />
            </g>
            <g>
                <path class="linea" d="m30 16l720 58.3" />
                <path class="punto" d="m30 18.5c-1.4 0-2.5-1.1-2.5-2.5 0-1.4 1.1-2.5 2.5-2.5 1.4 0 2.5 1.1 2.5 2.5 0 1.4-1.1 2.5-2.5 2.5z" />
                <path class="punto" d="m750 76.8c-1.4 0-2.5-1.1-2.5-2.5 0-1.3 1.1-2.5 2.5-2.5 1.4 0 2.5 1.2 2.5 2.5 0 1.4-1.1 2.5-2.5 2.5z" />
            </g>
            <g>
                <path class="linea" d="m30 74.3l720 233.4" />
                <path class="punto" d="m30 76.8c-1.4 0-2.5-1.1-2.5-2.5 0-1.3 1.1-2.5 2.5-2.5 1.4 0 2.5 1.2 2.5 2.5 0 1.4-1.1 2.5-2.5 2.5z" />
                <path class="punto" d="m750 310.2c-1.4 0-2.5-1.2-2.5-2.5 0-1.4 1.1-2.5 2.5-2.5 1.4 0 2.5 1.1 2.5 2.5 0 1.3-1.1 2.5-2.5 2.5z" />
            </g>
            <g>
                <path class="linea" d="m30 74.3l720-58.3" />
                <path class="punto" d="m30 76.8c-1.4 0-2.5-1.1-2.5-2.5 0-1.3 1.1-2.5 2.5-2.5 1.4 0 2.5 1.2 2.5 2.5 0 1.4-1.1 2.5-2.5 2.5z" />
                <path class="punto" d="m750 18.5c-1.4 0-2.5-1.1-2.5-2.5 0-1.4 1.1-2.5 2.5-2.5 1.4 0 2.5 1.1 2.5 2.5 0 1.4-1.1 2.5-2.5 2.5z" />
            </g>
            <g>
                <path class="linea" d="m30 16h720" />
                <path class="punto" d="m30 18.5c-1.4 0-2.5-1.1-2.5-2.5 0-1.4 1.1-2.5 2.5-2.5 1.4 0 2.5 1.1 2.5 2.5 0 1.4-1.1 2.5-2.5 2.5z" />
                <path class="punto" d="m750 18.5c-1.4 0-2.5-1.1-2.5-2.5 0-1.4 1.1-2.5 2.5-2.5 1.4 0 2.5 1.1 2.5 2.5 0 1.4-1.1 2.5-2.5 2.5z" />
            </g>
            <g>
                <path class="linea" d="m30 16h720" />
                <path class="punto" d="m30 18.5c-1.4 0-2.5-1.1-2.5-2.5 0-1.4 1.1-2.5 2.5-2.5 1.4 0 2.5 1.1 2.5 2.5 0 1.4-1.1 2.5-2.5 2.5z" />
                <path class="punto" d="m750 18.5c-1.4 0-2.5-1.1-2.5-2.5 0-1.4 1.1-2.5 2.5-2.5 1.4 0 2.5 1.1 2.5 2.5 0 1.4-1.1 2.5-2.5 2.5z" />
            </g>
            <g>
                <path class="linea" d="m30 16h720" />
                <path class="punto" d="m30 18.5c-1.4 0-2.5-1.1-2.5-2.5 0-1.4 1.1-2.5 2.5-2.5 1.4 0 2.5 1.1 2.5 2.5 0 1.4-1.1 2.5-2.5 2.5z" />
                <path class="punto" d="m750 18.5c-1.4 0-2.5-1.1-2.5-2.5 0-1.4 1.1-2.5 2.5-2.5 1.4 0 2.5 1.1 2.5 2.5 0 1.4-1.1 2.5-2.5 2.5z" />
            </g>
            <g>
                <path class="linea" d="m30 74.3l720 70" />
                <path class="punto" d="m30 76.8c-1.4 0-2.5-1.1-2.5-2.5 0-1.3 1.1-2.5 2.5-2.5 1.4 0 2.5 1.2 2.5 2.5 0 1.4-1.1 2.5-2.5 2.5z" />
                <path class="punto" d="m750 146.8c-1.4 0-2.5-1.1-2.5-2.5 0-1.3 1.1-2.5 2.5-2.5 1.4 0 2.5 1.2 2.5 2.5 0 1.4-1.1 2.5-2.5 2.5z" />
            </g>
            <g>
                <path class="linea" d="m30 74.3l720 105" />
                <path class="punto" d="m30 76.8c-1.4 0-2.5-1.1-2.5-2.5 0-1.3 1.1-2.5 2.5-2.5 1.4 0 2.5 1.2 2.5 2.5 0 1.4-1.1 2.5-2.5 2.5z" />
                <path class="punto" d="m750 181.8c-1.4 0-2.5-1.1-2.5-2.5 0-1.3 1.1-2.5 2.5-2.5 1.4 0 2.5 1.2 2.5 2.5 0 1.4-1.1 2.5-2.5 2.5z" />
            </g>
            <g>
                <path class="linea" d="m30 249.3l720-116.6" />
                <path class="punto" d="m30 251.8c-1.4 0-2.5-1.1-2.5-2.5 0-1.3 1.1-2.5 2.5-2.5 1.4 0 2.5 1.2 2.5 2.5 0 1.4-1.1 2.5-2.5 2.5z" />
                <path class="punto" d="m750 135.2c-1.4 0-2.5-1.2-2.5-2.5 0-1.4 1.1-2.5 2.5-2.5 1.4 0 2.5 1.1 2.5 2.5 0 1.3-1.1 2.5-2.5 2.5z" />
            </g>
            <g>
                <path class="linea" d="m30 156l720 70" />
                <path class="punto" d="m30 158.5c-1.4 0-2.5-1.1-2.5-2.5 0-1.4 1.1-2.5 2.5-2.5 1.4 0 2.5 1.1 2.5 2.5 0 1.4-1.1 2.5-2.5 2.5z" />
                <path class="punto" d="m750 228.5c-1.4 0-2.5-1.1-2.5-2.5 0-1.4 1.1-2.5 2.5-2.5 1.4 0 2.5 1.1 2.5 2.5 0 1.4-1.1 2.5-2.5 2.5z" />
            </g>
            <g>
                <path class="linea" d="m30 132.7l720-116.7" />
                <path class="punto" d="m30 135.2c-1.4 0-2.5-1.2-2.5-2.5 0-1.4 1.1-2.5 2.5-2.5 1.4 0 2.5 1.1 2.5 2.5 0 1.3-1.1 2.5-2.5 2.5z" />
                <path class="punto" d="m750 18.5c-1.4 0-2.5-1.1-2.5-2.5 0-1.4 1.1-2.5 2.5-2.5 1.4 0 2.5 1.1 2.5 2.5 0 1.4-1.1 2.5-2.5 2.5z" />
            </g>
            <g>
                <path class="linea" d="m30 167.7l720-35" />
                <path class="punto" d="m30 170.2c-1.4 0-2.5-1.2-2.5-2.5 0-1.4 1.1-2.5 2.5-2.5 1.4 0 2.5 1.1 2.5 2.5 0 1.3-1.1 2.5-2.5 2.5z" />
                <path class="punto" d="m750 135.2c-1.4 0-2.5-1.2-2.5-2.5 0-1.4 1.1-2.5 2.5-2.5 1.4 0 2.5 1.1 2.5 2.5 0 1.3-1.1 2.5-2.5 2.5z" />
            </g>
            <g>
                <path class="linea" d="m30 16l720 116.7" />
                <path class="punto" d="m30 18.5c-1.4 0-2.5-1.1-2.5-2.5 0-1.4 1.1-2.5 2.5-2.5 1.4 0 2.5 1.1 2.5 2.5 0 1.4-1.1 2.5-2.5 2.5z" />
                <path class="punto" d="m750 135.2c-1.4 0-2.5-1.2-2.5-2.5 0-1.4 1.1-2.5 2.5-2.5 1.4 0 2.5 1.1 2.5 2.5 0 1.3-1.1 2.5-2.5 2.5z" />
            </g>
            <g>
                <path class="linea" d="m30 144.3l720-105" />
                <path class="punto" d="m30 146.8c-1.4 0-2.5-1.1-2.5-2.5 0-1.3 1.1-2.5 2.5-2.5 1.4 0 2.5 1.2 2.5 2.5 0 1.4-1.1 2.5-2.5 2.5z" />
                <path class="punto" d="m750 41.8c-1.4 0-2.5-1.1-2.5-2.5 0-1.3 1.1-2.5 2.5-2.5 1.4 0 2.5 1.2 2.5 2.5 0 1.4-1.1 2.5-2.5 2.5z" />
            </g>
            <g>
                <path class="linea" d="m30 27.7l720 105" />
                <path class="punto" d="m30 30.2c-1.4 0-2.5-1.2-2.5-2.5 0-1.4 1.1-2.5 2.5-2.5 1.4 0 2.5 1.1 2.5 2.5 0 1.3-1.1 2.5-2.5 2.5z" />
                <path class="punto" d="m750 135.2c-1.4 0-2.5-1.2-2.5-2.5 0-1.4 1.1-2.5 2.5-2.5 1.4 0 2.5 1.1 2.5 2.5 0 1.3-1.1 2.5-2.5 2.5z" />
            </g>
            <g>
                <path class="linea" d="m30 39.3l720 11.7" />
                <path class="punto" d="m30 41.8c-1.4 0-2.5-1.1-2.5-2.5 0-1.3 1.1-2.5 2.5-2.5 1.4 0 2.5 1.2 2.5 2.5 0 1.4-1.1 2.5-2.5 2.5z" />
                <path class="punto" d="m750 53.5c-1.4 0-2.5-1.1-2.5-2.5 0-1.4 1.1-2.5 2.5-2.5 1.4 0 2.5 1.1 2.5 2.5 0 1.4-1.1 2.5-2.5 2.5z" />
            </g>
            <g>
                <path class="linea" d="m30 144.3l720-46.6" />
                <path class="punto" d="m30 146.8c-1.4 0-2.5-1.1-2.5-2.5 0-1.3 1.1-2.5 2.5-2.5 1.4 0 2.5 1.2 2.5 2.5 0 1.4-1.1 2.5-2.5 2.5z" />
                <path class="punto" d="m750 100.2c-1.4 0-2.5-1.2-2.5-2.5 0-1.4 1.1-2.5 2.5-2.5 1.4 0 2.5 1.1 2.5 2.5 0 1.3-1.1 2.5-2.5 2.5z" />
            </g>
            <g>
                <path class="linea" d="m30 132.7l720 23.3" />
                <path class="punto" d="m30 135.2c-1.4 0-2.5-1.2-2.5-2.5 0-1.4 1.1-2.5 2.5-2.5 1.4 0 2.5 1.1 2.5 2.5 0 1.3-1.1 2.5-2.5 2.5z" />
                <path class="punto" d="m750 158.5c-1.4 0-2.5-1.1-2.5-2.5 0-1.4 1.1-2.5 2.5-2.5 1.4 0 2.5 1.1 2.5 2.5 0 1.4-1.1 2.5-2.5 2.5z" />
            </g>
            <g>
                <path class="linea" d="m30 97.7l720-81.7" />
                <path class="punto" d="m30 100.2c-1.4 0-2.5-1.2-2.5-2.5 0-1.4 1.1-2.5 2.5-2.5 1.4 0 2.5 1.1 2.5 2.5 0 1.3-1.1 2.5-2.5 2.5z" />
                <path class="punto" d="m750 18.5c-1.4 0-2.5-1.1-2.5-2.5 0-1.4 1.1-2.5 2.5-2.5 1.4 0 2.5 1.1 2.5 2.5 0 1.4-1.1 2.5-2.5 2.5z" />
            </g>
            <g>
                <path class="linea" d="m30 132.7l720-35" />
                <path class="punto" d="m30 135.2c-1.4 0-2.5-1.2-2.5-2.5 0-1.4 1.1-2.5 2.5-2.5 1.4 0 2.5 1.1 2.5 2.5 0 1.3-1.1 2.5-2.5 2.5z" />
                <path class="punto" d="m750 100.2c-1.4 0-2.5-1.2-2.5-2.5 0-1.4 1.1-2.5 2.5-2.5 1.4 0 2.5 1.1 2.5 2.5 0 1.3-1.1 2.5-2.5 2.5z" />
            </g>
            <g>
                <path class="linea" d="m30 121l720 11.7" />
                <path class="punto" d="m30 123.5c-1.4 0-2.5-1.1-2.5-2.5 0-1.4 1.1-2.5 2.5-2.5 1.4 0 2.5 1.1 2.5 2.5 0 1.4-1.1 2.5-2.5 2.5z" />
                <path class="punto" d="m750 135.2c-1.4 0-2.5-1.2-2.5-2.5 0-1.4 1.1-2.5 2.5-2.5 1.4 0 2.5 1.1 2.5 2.5 0 1.3-1.1 2.5-2.5 2.5z" />
            </g>
            <g>
                <path class="linea" d="m30 16h720" />
                <path class="punto" d="m30 18.5c-1.4 0-2.5-1.1-2.5-2.5 0-1.4 1.1-2.5 2.5-2.5 1.4 0 2.5 1.1 2.5 2.5 0 1.4-1.1 2.5-2.5 2.5z" />
                <path class="punto" d="m750 18.5c-1.4 0-2.5-1.1-2.5-2.5 0-1.4 1.1-2.5 2.5-2.5 1.4 0 2.5 1.1 2.5 2.5 0 1.4-1.1 2.5-2.5 2.5z" />
            </g>
            <g>
                <path class="linea" d="m30 62.7l720 11.6" />
                <path class="punto" d="m30 65.2c-1.4 0-2.5-1.2-2.5-2.5 0-1.4 1.1-2.5 2.5-2.5 1.4 0 2.5 1.1 2.5 2.5 0 1.3-1.1 2.5-2.5 2.5z" />
                <path class="punto" d="m750 76.8c-1.4 0-2.5-1.1-2.5-2.5 0-1.3 1.1-2.5 2.5-2.5 1.4 0 2.5 1.2 2.5 2.5 0 1.4-1.1 2.5-2.5 2.5z" />
            </g>
            <g>
                <path class="linea" d="m30 39.3l720 11.7" />
                <path class="punto" d="m30 41.8c-1.4 0-2.5-1.1-2.5-2.5 0-1.3 1.1-2.5 2.5-2.5 1.4 0 2.5 1.2 2.5 2.5 0 1.4-1.1 2.5-2.5 2.5z" />
                <path class="punto" d="m750 53.5c-1.4 0-2.5-1.1-2.5-2.5 0-1.4 1.1-2.5 2.5-2.5 1.4 0 2.5 1.1 2.5 2.5 0 1.4-1.1 2.5-2.5 2.5z" />
            </g>
            <g>
                <path class="linea" d="m30 97.7l720 70" />
                <path class="punto" d="m30 100.2c-1.4 0-2.5-1.2-2.5-2.5 0-1.4 1.1-2.5 2.5-2.5 1.4 0 2.5 1.1 2.5 2.5 0 1.3-1.1 2.5-2.5 2.5z" />
                <path class="punto" d="m750 170.2c-1.4 0-2.5-1.2-2.5-2.5 0-1.4 1.1-2.5 2.5-2.5 1.4 0 2.5 1.1 2.5 2.5 0 1.3-1.1 2.5-2.5 2.5z" />
            </g>
            <g>
                <path class="linea" d="m30 86l720 46.7" />
                <path class="punto" d="m30 88.5c-1.4 0-2.5-1.1-2.5-2.5 0-1.4 1.1-2.5 2.5-2.5 1.4 0 2.5 1.1 2.5 2.5 0 1.4-1.1 2.5-2.5 2.5z" />
                <path class="punto" d="m750 135.2c-1.4 0-2.5-1.2-2.5-2.5 0-1.4 1.1-2.5 2.5-2.5 1.4 0 2.5 1.1 2.5 2.5 0 1.3-1.1 2.5-2.5 2.5z" />
            </g>
            <g>
                <path class="linea" d="m30 97.7l720-23.4" />
                <path class="punto" d="m30 100.2c-1.4 0-2.5-1.2-2.5-2.5 0-1.4 1.1-2.5 2.5-2.5 1.4 0 2.5 1.1 2.5 2.5 0 1.3-1.1 2.5-2.5 2.5z" />
                <path class="punto" d="m750 76.8c-1.4 0-2.5-1.1-2.5-2.5 0-1.3 1.1-2.5 2.5-2.5 1.4 0 2.5 1.2 2.5 2.5 0 1.4-1.1 2.5-2.5 2.5z" />
            </g>
            <g>
                <path class="linea" d="m30 237.7l720-105" />
                <path class="punto" d="m30 240.2c-1.4 0-2.5-1.2-2.5-2.5 0-1.4 1.1-2.5 2.5-2.5 1.4 0 2.5 1.1 2.5 2.5 0 1.3-1.1 2.5-2.5 2.5z" />
                <path class="punto" d="m750 135.2c-1.4 0-2.5-1.2-2.5-2.5 0-1.4 1.1-2.5 2.5-2.5 1.4 0 2.5 1.1 2.5 2.5 0 1.3-1.1 2.5-2.5 2.5z" />
            </g>
            <g>
                <path class="linea" d="m30 132.7h720" />
                <path class="punto" d="m30 135.2c-1.4 0-2.5-1.2-2.5-2.5 0-1.4 1.1-2.5 2.5-2.5 1.4 0 2.5 1.1 2.5 2.5 0 1.3-1.1 2.5-2.5 2.5z" />
                <path class="punto" d="m750 135.2c-1.4 0-2.5-1.2-2.5-2.5 0-1.4 1.1-2.5 2.5-2.5 1.4 0 2.5 1.1 2.5 2.5 0 1.3-1.1 2.5-2.5 2.5z" />
            </g>
            <g>
                <path class="linea" d="m30 74.3l720 58.4" />
                <path class="punto" d="m30 76.8c-1.4 0-2.5-1.1-2.5-2.5 0-1.3 1.1-2.5 2.5-2.5 1.4 0 2.5 1.2 2.5 2.5 0 1.4-1.1 2.5-2.5 2.5z" />
                <path class="punto" d="m750 135.2c-1.4 0-2.5-1.2-2.5-2.5 0-1.4 1.1-2.5 2.5-2.5 1.4 0 2.5 1.1 2.5 2.5 0 1.3-1.1 2.5-2.5 2.5z" />
            </g>
            <g>
                <path class="linea" d="m30 109.3l720 175" />
                <path class="punto" d="m30 111.8c-1.4 0-2.5-1.1-2.5-2.5 0-1.3 1.1-2.5 2.5-2.5 1.4 0 2.5 1.2 2.5 2.5 0 1.4-1.1 2.5-2.5 2.5z" />
                <path class="punto" d="m750 286.8c-1.4 0-2.5-1.1-2.5-2.5 0-1.3 1.1-2.5 2.5-2.5 1.4 0 2.5 1.2 2.5 2.5 0 1.4-1.1 2.5-2.5 2.5z" />
            </g>
            <g>
                <path class="linea" d="m30 284.3l720-210" />
                <path class="punto" d="m30 286.8c-1.4 0-2.5-1.1-2.5-2.5 0-1.3 1.1-2.5 2.5-2.5 1.4 0 2.5 1.2 2.5 2.5 0 1.4-1.1 2.5-2.5 2.5z" />
                <path class="punto" d="m750 76.8c-1.4 0-2.5-1.1-2.5-2.5 0-1.3 1.1-2.5 2.5-2.5 1.4 0 2.5 1.2 2.5 2.5 0 1.4-1.1 2.5-2.5 2.5z" />
            </g>
            <g>
                <path class="linea" d="m30 366l720-175" />
                <path class="punto" d="m30 368.5c-1.4 0-2.5-1.1-2.5-2.5 0-1.4 1.1-2.5 2.5-2.5 1.4 0 2.5 1.1 2.5 2.5 0 1.4-1.1 2.5-2.5 2.5z" />
                <path class="punto" d="m750 193.5c-1.4 0-2.5-1.1-2.5-2.5 0-1.4 1.1-2.5 2.5-2.5 1.4 0 2.5 1.1 2.5 2.5 0 1.4-1.1 2.5-2.5 2.5z" />
            </g>
            <g>
                <path class="linea" d="m30 109.3l720 105" />
                <path class="punto" d="m30 111.8c-1.4 0-2.5-1.1-2.5-2.5 0-1.3 1.1-2.5 2.5-2.5 1.4 0 2.5 1.2 2.5 2.5 0 1.4-1.1 2.5-2.5 2.5z" />
                <path class="punto" d="m750 216.8c-1.4 0-2.5-1.1-2.5-2.5 0-1.3 1.1-2.5 2.5-2.5 1.4 0 2.5 1.2 2.5 2.5 0 1.4-1.1 2.5-2.5 2.5z" />
            </g>
            <g>
                <path class="linea" d="m30 191h720" />
                <path class="punto" d="m30 193.5c-1.4 0-2.5-1.1-2.5-2.5 0-1.4 1.1-2.5 2.5-2.5 1.4 0 2.5 1.1 2.5 2.5 0 1.4-1.1 2.5-2.5 2.5z" />
                <path class="punto" d="m750 193.5c-1.4 0-2.5-1.1-2.5-2.5 0-1.4 1.1-2.5 2.5-2.5 1.4 0 2.5 1.1 2.5 2.5 0 1.4-1.1 2.5-2.5 2.5z" />
            </g>
            <g>
                <path class="linea" d="m30 16h720" />
                <path class="punto" d="m30 18.5c-1.4 0-2.5-1.1-2.5-2.5 0-1.4 1.1-2.5 2.5-2.5 1.4 0 2.5 1.1 2.5 2.5 0 1.4-1.1 2.5-2.5 2.5z" />
                <path class="punto" d="m750 18.5c-1.4 0-2.5-1.1-2.5-2.5 0-1.4 1.1-2.5 2.5-2.5 1.4 0 2.5 1.1 2.5 2.5 0 1.4-1.1 2.5-2.5 2.5z" />
            </g>
            <g>
                <path class="linea" d="m30 191l720-58.3" />
                <path class="punto" d="m30 193.5c-1.4 0-2.5-1.1-2.5-2.5 0-1.4 1.1-2.5 2.5-2.5 1.4 0 2.5 1.1 2.5 2.5 0 1.4-1.1 2.5-2.5 2.5z" />
                <path class="punto" d="m750 135.2c-1.4 0-2.5-1.2-2.5-2.5 0-1.4 1.1-2.5 2.5-2.5 1.4 0 2.5 1.1 2.5 2.5 0 1.3-1.1 2.5-2.5 2.5z" />
            </g>
            <g>
                <path class="linea" d="m30 86l720-70" />
                <path class="punto" d="m30 88.5c-1.4 0-2.5-1.1-2.5-2.5 0-1.4 1.1-2.5 2.5-2.5 1.4 0 2.5 1.1 2.5 2.5 0 1.4-1.1 2.5-2.5 2.5z" />
                <path class="punto" d="m750 18.5c-1.4 0-2.5-1.1-2.5-2.5 0-1.4 1.1-2.5 2.5-2.5 1.4 0 2.5 1.1 2.5 2.5 0 1.4-1.1 2.5-2.5 2.5z" />
            </g>
            <g>
                <path class="linea" d="m30 74.3l720-35" />
                <path class="punto" d="m30 76.8c-1.4 0-2.5-1.1-2.5-2.5 0-1.3 1.1-2.5 2.5-2.5 1.4 0 2.5 1.2 2.5 2.5 0 1.4-1.1 2.5-2.5 2.5z" />
                <path class="punto" d="m750 41.8c-1.4 0-2.5-1.1-2.5-2.5 0-1.3 1.1-2.5 2.5-2.5 1.4 0 2.5 1.2 2.5 2.5 0 1.4-1.1 2.5-2.5 2.5z" />
            </g>
            <g>
                <path class="linea" d="m30 191h720" />
                <path class="punto" d="m30 193.5c-1.4 0-2.5-1.1-2.5-2.5 0-1.4 1.1-2.5 2.5-2.5 1.4 0 2.5 1.1 2.5 2.5 0 1.4-1.1 2.5-2.5 2.5z" />
                <path class="punto" d="m750 193.5c-1.4 0-2.5-1.1-2.5-2.5 0-1.4 1.1-2.5 2.5-2.5 1.4 0 2.5 1.1 2.5 2.5 0 1.4-1.1 2.5-2.5 2.5z" />
            </g>
            <g>
                <path class="linea" d="m30 74.3l720 151.7" />
                <path class="punto" d="m30 76.8c-1.4 0-2.5-1.1-2.5-2.5 0-1.3 1.1-2.5 2.5-2.5 1.4 0 2.5 1.2 2.5 2.5 0 1.4-1.1 2.5-2.5 2.5z" />
                <path class="punto" d="m750 228.5c-1.4 0-2.5-1.1-2.5-2.5 0-1.4 1.1-2.5 2.5-2.5 1.4 0 2.5 1.1 2.5 2.5 0 1.4-1.1 2.5-2.5 2.5z" />
            </g>
            <g>
                <path class="linea" d="m30 16l720 151.7" />
                <path class="punto" d="m30 18.5c-1.4 0-2.5-1.1-2.5-2.5 0-1.4 1.1-2.5 2.5-2.5 1.4 0 2.5 1.1 2.5 2.5 0 1.4-1.1 2.5-2.5 2.5z" />
                <path class="punto" d="m750 170.2c-1.4 0-2.5-1.2-2.5-2.5 0-1.4 1.1-2.5 2.5-2.5 1.4 0 2.5 1.1 2.5 2.5 0 1.3-1.1 2.5-2.5 2.5z" />
            </g>
            <g>
                <path class="linea" d="m30 16l720 58.3" />
                <path class="punto" d="m30 18.5c-1.4 0-2.5-1.1-2.5-2.5 0-1.4 1.1-2.5 2.5-2.5 1.4 0 2.5 1.1 2.5 2.5 0 1.4-1.1 2.5-2.5 2.5z" />
                <path class="punto" d="m750 76.8c-1.4 0-2.5-1.1-2.5-2.5 0-1.3 1.1-2.5 2.5-2.5 1.4 0 2.5 1.2 2.5 2.5 0 1.4-1.1 2.5-2.5 2.5z" />
            </g>
            <g>
                <path class="linea" d="m30 16l720 163.3" />
                <path class="punto" d="m30 18.5c-1.4 0-2.5-1.1-2.5-2.5 0-1.4 1.1-2.5 2.5-2.5 1.4 0 2.5 1.1 2.5 2.5 0 1.4-1.1 2.5-2.5 2.5z" />
                <path class="punto" d="m750 181.8c-1.4 0-2.5-1.1-2.5-2.5 0-1.3 1.1-2.5 2.5-2.5 1.4 0 2.5 1.2 2.5 2.5 0 1.4-1.1 2.5-2.5 2.5z" />
            </g>
            <g>
                <path class="linea" d="m30 16l720 35" />
                <path class="punto" d="m30 18.5c-1.4 0-2.5-1.1-2.5-2.5 0-1.4 1.1-2.5 2.5-2.5 1.4 0 2.5 1.1 2.5 2.5 0 1.4-1.1 2.5-2.5 2.5z" />
                <path class="punto" d="m750 53.5c-1.4 0-2.5-1.1-2.5-2.5 0-1.4 1.1-2.5 2.5-2.5 1.4 0 2.5 1.1 2.5 2.5 0 1.4-1.1 2.5-2.5 2.5z" />
            </g>
            <g>
                <path class="linea" d="m30 121l720-46.7" />
                <path class="punto" d="m30 123.5c-1.4 0-2.5-1.1-2.5-2.5 0-1.4 1.1-2.5 2.5-2.5 1.4 0 2.5 1.1 2.5 2.5 0 1.4-1.1 2.5-2.5 2.5z" />
                <path class="punto" d="m750 76.8c-1.4 0-2.5-1.1-2.5-2.5 0-1.3 1.1-2.5 2.5-2.5 1.4 0 2.5 1.2 2.5 2.5 0 1.4-1.1 2.5-2.5 2.5z" />
            </g>
            <g>
                <path class="linea" d="m30 132.7l720 81.6" />
                <path class="punto" d="m30 135.2c-1.4 0-2.5-1.2-2.5-2.5 0-1.4 1.1-2.5 2.5-2.5 1.4 0 2.5 1.1 2.5 2.5 0 1.3-1.1 2.5-2.5 2.5z" />
                <path class="punto" d="m750 216.8c-1.4 0-2.5-1.1-2.5-2.5 0-1.3 1.1-2.5 2.5-2.5 1.4 0 2.5 1.2 2.5 2.5 0 1.4-1.1 2.5-2.5 2.5z" />
            </g>
            <g>
                <path class="linea" d="m30 74.3l720 175" />
                <path class="punto" d="m30 76.8c-1.4 0-2.5-1.1-2.5-2.5 0-1.3 1.1-2.5 2.5-2.5 1.4 0 2.5 1.2 2.5 2.5 0 1.4-1.1 2.5-2.5 2.5z" />
                <path class="punto" d="m750 251.8c-1.4 0-2.5-1.1-2.5-2.5 0-1.3 1.1-2.5 2.5-2.5 1.4 0 2.5 1.2 2.5 2.5 0 1.4-1.1 2.5-2.5 2.5z" />
            </g>
            <g>
                <path class="linea" d="m30 132.7l720-58.4" />
                <path class="punto" d="m30 135.2c-1.4 0-2.5-1.2-2.5-2.5 0-1.4 1.1-2.5 2.5-2.5 1.4 0 2.5 1.1 2.5 2.5 0 1.3-1.1 2.5-2.5 2.5z" />
                <path class="punto" d="m750 76.8c-1.4 0-2.5-1.1-2.5-2.5 0-1.3 1.1-2.5 2.5-2.5 1.4 0 2.5 1.2 2.5 2.5 0 1.4-1.1 2.5-2.5 2.5z" />
            </g>
            <g>
                <path class="linea" d="m30 249.3l720-116.6" />
                <path class="punto" d="m30 251.8c-1.4 0-2.5-1.1-2.5-2.5 0-1.3 1.1-2.5 2.5-2.5 1.4 0 2.5 1.2 2.5 2.5 0 1.4-1.1 2.5-2.5 2.5z" />
                <path class="punto" d="m750 135.2c-1.4 0-2.5-1.2-2.5-2.5 0-1.4 1.1-2.5 2.5-2.5 1.4 0 2.5 1.1 2.5 2.5 0 1.3-1.1 2.5-2.5 2.5z" />
            </g>
            <g>
                <path class="linea" d="m30 191l720-70" />
                <path class="punto" d="m30 193.5c-1.4 0-2.5-1.1-2.5-2.5 0-1.4 1.1-2.5 2.5-2.5 1.4 0 2.5 1.1 2.5 2.5 0 1.4-1.1 2.5-2.5 2.5z" />
                <path class="punto" d="m750 123.5c-1.4 0-2.5-1.1-2.5-2.5 0-1.4 1.1-2.5 2.5-2.5 1.4 0 2.5 1.1 2.5 2.5 0 1.4-1.1 2.5-2.5 2.5z" />
            </g>
            <g>
                <path class="linea" d="m30 74.3l720-58.3" />
                <path class="punto" d="m30 76.8c-1.4 0-2.5-1.1-2.5-2.5 0-1.3 1.1-2.5 2.5-2.5 1.4 0 2.5 1.2 2.5 2.5 0 1.4-1.1 2.5-2.5 2.5z" />
                <path class="punto" d="m750 18.5c-1.4 0-2.5-1.1-2.5-2.5 0-1.4 1.1-2.5 2.5-2.5 1.4 0 2.5 1.1 2.5 2.5 0 1.4-1.1 2.5-2.5 2.5z" />
            </g>
            <g>
                <path class="linea" d="m30 74.3l720 58.4" />
                <path class="punto" d="m30 76.8c-1.4 0-2.5-1.1-2.5-2.5 0-1.3 1.1-2.5 2.5-2.5 1.4 0 2.5 1.2 2.5 2.5 0 1.4-1.1 2.5-2.5 2.5z" />
                <path class="punto" d="m750 135.2c-1.4 0-2.5-1.2-2.5-2.5 0-1.4 1.1-2.5 2.5-2.5 1.4 0 2.5 1.1 2.5 2.5 0 1.3-1.1 2.5-2.5 2.5z" />
            </g>
            <g>
                <path class="linea" d="m30 74.3l720 58.4" />
                <path class="punto" d="m30 76.8c-1.4 0-2.5-1.1-2.5-2.5 0-1.3 1.1-2.5 2.5-2.5 1.4 0 2.5 1.2 2.5 2.5 0 1.4-1.1 2.5-2.5 2.5z" />
                <path class="punto" d="m750 135.2c-1.4 0-2.5-1.2-2.5-2.5 0-1.4 1.1-2.5 2.5-2.5 1.4 0 2.5 1.1 2.5 2.5 0 1.3-1.1 2.5-2.5 2.5z" />
            </g>
            <g>
                <path class="linea" d="m30 156l720-140" />
                <path class="punto" d="m30 158.5c-1.4 0-2.5-1.1-2.5-2.5 0-1.4 1.1-2.5 2.5-2.5 1.4 0 2.5 1.1 2.5 2.5 0 1.4-1.1 2.5-2.5 2.5z" />
                <path class="punto" d="m750 18.5c-1.4 0-2.5-1.1-2.5-2.5 0-1.4 1.1-2.5 2.5-2.5 1.4 0 2.5 1.1 2.5 2.5 0 1.4-1.1 2.5-2.5 2.5z" />
            </g>
            <g>
                <path class="linea" d="m30 16h720" />
                <path class="punto" d="m30 18.5c-1.4 0-2.5-1.1-2.5-2.5 0-1.4 1.1-2.5 2.5-2.5 1.4 0 2.5 1.1 2.5 2.5 0 1.4-1.1 2.5-2.5 2.5z" />
                <path class="punto" d="m750 18.5c-1.4 0-2.5-1.1-2.5-2.5 0-1.4 1.1-2.5 2.5-2.5 1.4 0 2.5 1.1 2.5 2.5 0 1.4-1.1 2.5-2.5 2.5z" />
            </g>
            <g>
                <path class="linea" d="m30 74.3l720 140" />
                <path class="punto" d="m30 76.8c-1.4 0-2.5-1.1-2.5-2.5 0-1.3 1.1-2.5 2.5-2.5 1.4 0 2.5 1.2 2.5 2.5 0 1.4-1.1 2.5-2.5 2.5z" />
                <path class="punto" d="m750 216.8c-1.4 0-2.5-1.1-2.5-2.5 0-1.3 1.1-2.5 2.5-2.5 1.4 0 2.5 1.2 2.5 2.5 0 1.4-1.1 2.5-2.5 2.5z" />
            </g>
            <g>
                <path class="linea" d="m30 191l720 175" />
                <path class="punto" d="m30 193.5c-1.4 0-2.5-1.1-2.5-2.5 0-1.4 1.1-2.5 2.5-2.5 1.4 0 2.5 1.1 2.5 2.5 0 1.4-1.1 2.5-2.5 2.5z" />
                <path class="punto" d="m750 368.5c-1.4 0-2.5-1.1-2.5-2.5 0-1.4 1.1-2.5 2.5-2.5 1.4 0 2.5 1.1 2.5 2.5 0 1.4-1.1 2.5-2.5 2.5z" />
            </g>
            <g>
                <path class="linea" d="m30 132.7l720-11.7" />
                <path class="punto" d="m30 135.2c-1.4 0-2.5-1.2-2.5-2.5 0-1.4 1.1-2.5 2.5-2.5 1.4 0 2.5 1.1 2.5 2.5 0 1.3-1.1 2.5-2.5 2.5z" />
                <path class="punto" d="m750 123.5c-1.4 0-2.5-1.1-2.5-2.5 0-1.4 1.1-2.5 2.5-2.5 1.4 0 2.5 1.1 2.5 2.5 0 1.4-1.1 2.5-2.5 2.5z" />
            </g>
            <g>
                <path class="linea" d="m30 261l720-70" />
                <path class="punto" d="m30 263.5c-1.4 0-2.5-1.1-2.5-2.5 0-1.4 1.1-2.5 2.5-2.5 1.4 0 2.5 1.1 2.5 2.5 0 1.4-1.1 2.5-2.5 2.5z" />
                <path class="punto" d="m750 193.5c-1.4 0-2.5-1.1-2.5-2.5 0-1.4 1.1-2.5 2.5-2.5 1.4 0 2.5 1.1 2.5 2.5 0 1.4-1.1 2.5-2.5 2.5z" />
            </g>
            <g>
                <path class="linea" d="m30 39.3l720 35" />
                <path class="punto" d="m30 41.8c-1.4 0-2.5-1.1-2.5-2.5 0-1.3 1.1-2.5 2.5-2.5 1.4 0 2.5 1.2 2.5 2.5 0 1.4-1.1 2.5-2.5 2.5z" />
                <path class="punto" d="m750 76.8c-1.4 0-2.5-1.1-2.5-2.5 0-1.3 1.1-2.5 2.5-2.5 1.4 0 2.5 1.2 2.5 2.5 0 1.4-1.1 2.5-2.5 2.5z" />
            </g>
            <g>
                <path class="linea" d="m30 249.3l720 46.7" />
                <path class="punto" d="m30 251.8c-1.4 0-2.5-1.1-2.5-2.5 0-1.3 1.1-2.5 2.5-2.5 1.4 0 2.5 1.2 2.5 2.5 0 1.4-1.1 2.5-2.5 2.5z" />
                <path class="punto" d="m750 298.5c-1.4 0-2.5-1.1-2.5-2.5 0-1.4 1.1-2.5 2.5-2.5 1.4 0 2.5 1.1 2.5 2.5 0 1.4-1.1 2.5-2.5 2.5z" />
            </g>
            <g>
                <path class="linea" d="m30 191l720-58.3" />
                <path class="punto" d="m30 193.5c-1.4 0-2.5-1.1-2.5-2.5 0-1.4 1.1-2.5 2.5-2.5 1.4 0 2.5 1.1 2.5 2.5 0 1.4-1.1 2.5-2.5 2.5z" />
                <path class="punto" d="m750 135.2c-1.4 0-2.5-1.2-2.5-2.5 0-1.4 1.1-2.5 2.5-2.5 1.4 0 2.5 1.1 2.5 2.5 0 1.3-1.1 2.5-2.5 2.5z" />
            </g>
            <g>
                <path class="linea" d="m30 156l720-81.7" />
                <path class="punto" d="m30 158.5c-1.4 0-2.5-1.1-2.5-2.5 0-1.4 1.1-2.5 2.5-2.5 1.4 0 2.5 1.1 2.5 2.5 0 1.4-1.1 2.5-2.5 2.5z" />
                <path class="punto" d="m750 76.8c-1.4 0-2.5-1.1-2.5-2.5 0-1.3 1.1-2.5 2.5-2.5 1.4 0 2.5 1.2 2.5 2.5 0 1.4-1.1 2.5-2.5 2.5z" />
            </g>
            <g>
                <path class="linea" d="m30 191l720-23.3" />
                <path class="punto" d="m30 193.5c-1.4 0-2.5-1.1-2.5-2.5 0-1.4 1.1-2.5 2.5-2.5 1.4 0 2.5 1.1 2.5 2.5 0 1.4-1.1 2.5-2.5 2.5z" />
                <path class="punto" d="m750 170.2c-1.4 0-2.5-1.2-2.5-2.5 0-1.4 1.1-2.5 2.5-2.5 1.4 0 2.5 1.1 2.5 2.5 0 1.3-1.1 2.5-2.5 2.5z" />
            </g>
            <g>
                <path class="linea" d="m30 249.3l720-93.3" />
                <path class="punto" d="m30 251.8c-1.4 0-2.5-1.1-2.5-2.5 0-1.3 1.1-2.5 2.5-2.5 1.4 0 2.5 1.2 2.5 2.5 0 1.4-1.1 2.5-2.5 2.5z" />
                <path class="punto" d="m750 158.5c-1.4 0-2.5-1.1-2.5-2.5 0-1.4 1.1-2.5 2.5-2.5 1.4 0 2.5 1.1 2.5 2.5 0 1.4-1.1 2.5-2.5 2.5z" />
            </g>
            <g>
                <path class="linea" d="m30 74.3l720 81.7" />
                <path class="punto" d="m30 76.8c-1.4 0-2.5-1.1-2.5-2.5 0-1.3 1.1-2.5 2.5-2.5 1.4 0 2.5 1.2 2.5 2.5 0 1.4-1.1 2.5-2.5 2.5z" />
                <path class="punto" d="m750 158.5c-1.4 0-2.5-1.1-2.5-2.5 0-1.4 1.1-2.5 2.5-2.5 1.4 0 2.5 1.1 2.5 2.5 0 1.4-1.1 2.5-2.5 2.5z" />
            </g>
            <g>
                <path class="linea" d="m30 97.7l720 93.3" />
                <path class="punto" d="m30 100.2c-1.4 0-2.5-1.2-2.5-2.5 0-1.4 1.1-2.5 2.5-2.5 1.4 0 2.5 1.1 2.5 2.5 0 1.3-1.1 2.5-2.5 2.5z" />
                <path class="punto" d="m750 193.5c-1.4 0-2.5-1.1-2.5-2.5 0-1.4 1.1-2.5 2.5-2.5 1.4 0 2.5 1.1 2.5 2.5 0 1.4-1.1 2.5-2.5 2.5z" />
            </g>
            <g>
                <path class="s18" d="m30 156l720-116.7" />
                <path class="punto" d="m30 158.5c-1.4 0-2.5-1.1-2.5-2.5 0-1.4 1.1-2.5 2.5-2.5 1.4 0 2.5 1.1 2.5 2.5 0 1.4-1.1 2.5-2.5 2.5z" />
                <path class="punto" d="m750 41.8c-1.4 0-2.5-1.1-2.5-2.5 0-1.3 1.1-2.5 2.5-2.5 1.4 0 2.5 1.2 2.5 2.5 0 1.4-1.1 2.5-2.5 2.5z" />
            </g>
            <g>
                <path class="linea" d="m30 191l720-58.3" />
                <path class="punto" d="m30 193.5c-1.4 0-2.5-1.1-2.5-2.5 0-1.4 1.1-2.5 2.5-2.5 1.4 0 2.5 1.1 2.5 2.5 0 1.4-1.1 2.5-2.5 2.5z" />
                <path class="punto" d="m750 135.2c-1.4 0-2.5-1.2-2.5-2.5 0-1.4 1.1-2.5 2.5-2.5 1.4 0 2.5 1.1 2.5 2.5 0 1.3-1.1 2.5-2.5 2.5z" />
            </g>
            <g>
                <path class="linea" d="m30 226l720-93.3" />
                <path class="punto" d="m30 228.5c-1.4 0-2.5-1.1-2.5-2.5 0-1.4 1.1-2.5 2.5-2.5 1.4 0 2.5 1.1 2.5 2.5 0 1.4-1.1 2.5-2.5 2.5z" />
                <path class="punto" d="m750 135.2c-1.4 0-2.5-1.2-2.5-2.5 0-1.4 1.1-2.5 2.5-2.5 1.4 0 2.5 1.1 2.5 2.5 0 1.3-1.1 2.5-2.5 2.5z" />
            </g>
            <g>
                <path class="linea" d="m30 39.3l720 233.4" />
                <path class="punto" d="m30 41.8c-1.4 0-2.5-1.1-2.5-2.5 0-1.3 1.1-2.5 2.5-2.5 1.4 0 2.5 1.2 2.5 2.5 0 1.4-1.1 2.5-2.5 2.5z" />
                <path class="punto" d="m750 275.2c-1.4 0-2.5-1.2-2.5-2.5 0-1.4 1.1-2.5 2.5-2.5 1.4 0 2.5 1.1 2.5 2.5 0 1.3-1.1 2.5-2.5 2.5z" />
            </g>
            <g>
                <path class="linea" d="m30 74.3l720-58.3" />
                <path class="punto" d="m30 76.8c-1.4 0-2.5-1.1-2.5-2.5 0-1.3 1.1-2.5 2.5-2.5 1.4 0 2.5 1.2 2.5 2.5 0 1.4-1.1 2.5-2.5 2.5z" />
                <path class="punto" d="m750 18.5c-1.4 0-2.5-1.1-2.5-2.5 0-1.4 1.1-2.5 2.5-2.5 1.4 0 2.5 1.1 2.5 2.5 0 1.4-1.1 2.5-2.5 2.5z" />
            </g>
            <g>
                <path class="linea" d="m30 74.3h720" />
                <path class="punto" d="m30 76.8c-1.4 0-2.5-1.1-2.5-2.5 0-1.3 1.1-2.5 2.5-2.5 1.4 0 2.5 1.2 2.5 2.5 0 1.4-1.1 2.5-2.5 2.5z" />
                <path class="punto" d="m750 76.8c-1.4 0-2.5-1.1-2.5-2.5 0-1.3 1.1-2.5 2.5-2.5 1.4 0 2.5 1.2 2.5 2.5 0 1.4-1.1 2.5-2.5 2.5z" />
            </g>
            <g>
                <path class="linea" d="m30 167.7l720 11.6" />
                <path class="punto" d="m30 170.2c-1.4 0-2.5-1.2-2.5-2.5 0-1.4 1.1-2.5 2.5-2.5 1.4 0 2.5 1.1 2.5 2.5 0 1.3-1.1 2.5-2.5 2.5z" />
                <path class="punto" d="m750 181.8c-1.4 0-2.5-1.1-2.5-2.5 0-1.3 1.1-2.5 2.5-2.5 1.4 0 2.5 1.2 2.5 2.5 0 1.4-1.1 2.5-2.5 2.5z" />
            </g>
            <g>
                <path class="linea" d="m30 74.3l720 116.7" />
                <path class="punto" d="m30 76.8c-1.4 0-2.5-1.1-2.5-2.5 0-1.3 1.1-2.5 2.5-2.5 1.4 0 2.5 1.2 2.5 2.5 0 1.4-1.1 2.5-2.5 2.5z" />
                <path class="punto" d="m750 193.5c-1.4 0-2.5-1.1-2.5-2.5 0-1.4 1.1-2.5 2.5-2.5 1.4 0 2.5 1.1 2.5 2.5 0 1.4-1.1 2.5-2.5 2.5z" />
            </g>
            <g>
                <path class="linea" d="m30 27.7l720 128.3" />
                <path class="punto" d="m30 30.2c-1.4 0-2.5-1.2-2.5-2.5 0-1.4 1.1-2.5 2.5-2.5 1.4 0 2.5 1.1 2.5 2.5 0 1.3-1.1 2.5-2.5 2.5z" />
                <path class="punto" d="m750 158.5c-1.4 0-2.5-1.1-2.5-2.5 0-1.4 1.1-2.5 2.5-2.5 1.4 0 2.5 1.1 2.5 2.5 0 1.4-1.1 2.5-2.5 2.5z" />
            </g>
            <g>
                <path class="linea" d="m30 97.7l720 35" />
                <path class="punto" d="m30 100.2c-1.4 0-2.5-1.2-2.5-2.5 0-1.4 1.1-2.5 2.5-2.5 1.4 0 2.5 1.1 2.5 2.5 0 1.3-1.1 2.5-2.5 2.5z" />
                <path class="punto" d="m750 135.2c-1.4 0-2.5-1.2-2.5-2.5 0-1.4 1.1-2.5 2.5-2.5 1.4 0 2.5 1.1 2.5 2.5 0 1.3-1.1 2.5-2.5 2.5z" />
            </g>
            <g>
                <path class="linea" d="m30 132.7l720 175" />
                <path class="punto" d="m30 135.2c-1.4 0-2.5-1.2-2.5-2.5 0-1.4 1.1-2.5 2.5-2.5 1.4 0 2.5 1.1 2.5 2.5 0 1.3-1.1 2.5-2.5 2.5z" />
                <path class="punto" d="m750 310.2c-1.4 0-2.5-1.2-2.5-2.5 0-1.4 1.1-2.5 2.5-2.5 1.4 0 2.5 1.1 2.5 2.5 0 1.3-1.1 2.5-2.5 2.5z" />
            </g>
            <g>
                <path class="linea" d="m30 51l720-35" />
                <path class="punto" d="m30 53.5c-1.4 0-2.5-1.1-2.5-2.5 0-1.4 1.1-2.5 2.5-2.5 1.4 0 2.5 1.1 2.5 2.5 0 1.4-1.1 2.5-2.5 2.5z" />
                <path class="punto" d="m750 18.5c-1.4 0-2.5-1.1-2.5-2.5 0-1.4 1.1-2.5 2.5-2.5 1.4 0 2.5 1.1 2.5 2.5 0 1.4-1.1 2.5-2.5 2.5z" />
            </g>
            <g>
                <path class="linea" d="m30 156l720 35" />
                <path class="punto" d="m30 158.5c-1.4 0-2.5-1.1-2.5-2.5 0-1.4 1.1-2.5 2.5-2.5 1.4 0 2.5 1.1 2.5 2.5 0 1.4-1.1 2.5-2.5 2.5z" />
                <path class="punto" d="m750 193.5c-1.4 0-2.5-1.1-2.5-2.5 0-1.4 1.1-2.5 2.5-2.5 1.4 0 2.5 1.1 2.5 2.5 0 1.4-1.1 2.5-2.5 2.5z" />
            </g>
            <g>
                <path class="linea" d="m30 132.7l720-58.4" />
                <path class="punto" d="m30 135.2c-1.4 0-2.5-1.2-2.5-2.5 0-1.4 1.1-2.5 2.5-2.5 1.4 0 2.5 1.1 2.5 2.5 0 1.3-1.1 2.5-2.5 2.5z" />
                <path class="punto" d="m750 76.8c-1.4 0-2.5-1.1-2.5-2.5 0-1.3 1.1-2.5 2.5-2.5 1.4 0 2.5 1.2 2.5 2.5 0 1.4-1.1 2.5-2.5 2.5z" />
            </g>
            <g>
                <path class="linea" d="m30 191l720-58.3" />
                <path class="punto" d="m30 193.5c-1.4 0-2.5-1.1-2.5-2.5 0-1.4 1.1-2.5 2.5-2.5 1.4 0 2.5 1.1 2.5 2.5 0 1.4-1.1 2.5-2.5 2.5z" />
                <path class="punto" d="m750 135.2c-1.4 0-2.5-1.2-2.5-2.5 0-1.4 1.1-2.5 2.5-2.5 1.4 0 2.5 1.1 2.5 2.5 0 1.3-1.1 2.5-2.5 2.5z" />
            </g>
            <g>
                <path class="linea" d="m30 132.7l720 58.3" />
                <path class="punto" d="m30 135.2c-1.4 0-2.5-1.2-2.5-2.5 0-1.4 1.1-2.5 2.5-2.5 1.4 0 2.5 1.1 2.5 2.5 0 1.3-1.1 2.5-2.5 2.5z" />
                <path class="punto" d="m750 193.5c-1.4 0-2.5-1.1-2.5-2.5 0-1.4 1.1-2.5 2.5-2.5 1.4 0 2.5 1.1 2.5 2.5 0 1.4-1.1 2.5-2.5 2.5z" />
            </g>
            <g>
                <path class="linea" d="m30 97.7l720 58.3" />
                <path class="punto" d="m30 100.2c-1.4 0-2.5-1.2-2.5-2.5 0-1.4 1.1-2.5 2.5-2.5 1.4 0 2.5 1.1 2.5 2.5 0 1.3-1.1 2.5-2.5 2.5z" />
                <path class="punto" d="m750 158.5c-1.4 0-2.5-1.1-2.5-2.5 0-1.4 1.1-2.5 2.5-2.5 1.4 0 2.5 1.1 2.5 2.5 0 1.4-1.1 2.5-2.5 2.5z" />
            </g>
            <g>
                <path class="linea" d="m30 132.7l720 140" />
                <path class="punto" d="m30 135.2c-1.4 0-2.5-1.2-2.5-2.5 0-1.4 1.1-2.5 2.5-2.5 1.4 0 2.5 1.1 2.5 2.5 0 1.3-1.1 2.5-2.5 2.5z" />
                <path class="punto" d="m750 275.2c-1.4 0-2.5-1.2-2.5-2.5 0-1.4 1.1-2.5 2.5-2.5 1.4 0 2.5 1.1 2.5 2.5 0 1.3-1.1 2.5-2.5 2.5z" />
            </g>
            <g>
                <path class="linea" d="m30 74.3l720 35" />
                <path class="punto" d="m30 76.8c-1.4 0-2.5-1.1-2.5-2.5 0-1.3 1.1-2.5 2.5-2.5 1.4 0 2.5 1.2 2.5 2.5 0 1.4-1.1 2.5-2.5 2.5z" />
                <path class="punto" d="m750 111.8c-1.4 0-2.5-1.1-2.5-2.5 0-1.3 1.1-2.5 2.5-2.5 1.4 0 2.5 1.2 2.5 2.5 0 1.4-1.1 2.5-2.5 2.5z" />
            </g>
            <g>
                <path class="linea" d="m30 191h720" />
                <path class="punto" d="m30 193.5c-1.4 0-2.5-1.1-2.5-2.5 0-1.4 1.1-2.5 2.5-2.5 1.4 0 2.5 1.1 2.5 2.5 0 1.4-1.1 2.5-2.5 2.5z" />
                <path class="punto" d="m750 193.5c-1.4 0-2.5-1.1-2.5-2.5 0-1.4 1.1-2.5 2.5-2.5 1.4 0 2.5 1.1 2.5 2.5 0 1.4-1.1 2.5-2.5 2.5z" />
            </g>
            <g>
                <path class="linea" d="m30 74.3l720 58.4" />
                <path class="punto" d="m30 76.8c-1.4 0-2.5-1.1-2.5-2.5 0-1.3 1.1-2.5 2.5-2.5 1.4 0 2.5 1.2 2.5 2.5 0 1.4-1.1 2.5-2.5 2.5z" />
                <path class="punto" d="m750 135.2c-1.4 0-2.5-1.2-2.5-2.5 0-1.4 1.1-2.5 2.5-2.5 1.4 0 2.5 1.1 2.5 2.5 0 1.3-1.1 2.5-2.5 2.5z" />
            </g>
            <g>
                <path class="linea" d="m30 214.3l720 35" />
                <path class="punto" d="m30 216.8c-1.4 0-2.5-1.1-2.5-2.5 0-1.3 1.1-2.5 2.5-2.5 1.4 0 2.5 1.2 2.5 2.5 0 1.4-1.1 2.5-2.5 2.5z" />
                <path class="punto" d="m750 251.8c-1.4 0-2.5-1.1-2.5-2.5 0-1.3 1.1-2.5 2.5-2.5 1.4 0 2.5 1.2 2.5 2.5 0 1.4-1.1 2.5-2.5 2.5z" />
            </g>
            <g>
                <path class="linea" d="m30 74.3l720 233.4" />
                <path class="punto" d="m30 76.8c-1.4 0-2.5-1.1-2.5-2.5 0-1.3 1.1-2.5 2.5-2.5 1.4 0 2.5 1.2 2.5 2.5 0 1.4-1.1 2.5-2.5 2.5z" />
                <path class="punto" d="m750 310.2c-1.4 0-2.5-1.2-2.5-2.5 0-1.4 1.1-2.5 2.5-2.5 1.4 0 2.5 1.1 2.5 2.5 0 1.3-1.1 2.5-2.5 2.5z" />
            </g>
            <g>
                <path class="linea" d="m30 156l720-81.7" />
                <path class="punto" d="m30 158.5c-1.4 0-2.5-1.1-2.5-2.5 0-1.4 1.1-2.5 2.5-2.5 1.4 0 2.5 1.1 2.5 2.5 0 1.4-1.1 2.5-2.5 2.5z" />
                <path class="punto" d="m750 76.8c-1.4 0-2.5-1.1-2.5-2.5 0-1.3 1.1-2.5 2.5-2.5 1.4 0 2.5 1.2 2.5 2.5 0 1.4-1.1 2.5-2.5 2.5z" />
            </g>
            <g>
                <path class="linea" d="m30 16l720 81.7" />
                <path class="punto" d="m30 18.5c-1.4 0-2.5-1.1-2.5-2.5 0-1.4 1.1-2.5 2.5-2.5 1.4 0 2.5 1.1 2.5 2.5 0 1.4-1.1 2.5-2.5 2.5z" />
                <path class="punto" d="m750 100.2c-1.4 0-2.5-1.2-2.5-2.5 0-1.4 1.1-2.5 2.5-2.5 1.4 0 2.5 1.1 2.5 2.5 0 1.3-1.1 2.5-2.5 2.5z" />
            </g>
            <g>
                <path class="linea" d="m30 109.3l720-93.3" />
                <path class="punto" d="m30 111.8c-1.4 0-2.5-1.1-2.5-2.5 0-1.3 1.1-2.5 2.5-2.5 1.4 0 2.5 1.2 2.5 2.5 0 1.4-1.1 2.5-2.5 2.5z" />
                <path class="punto" d="m750 18.5c-1.4 0-2.5-1.1-2.5-2.5 0-1.4 1.1-2.5 2.5-2.5 1.4 0 2.5 1.1 2.5 2.5 0 1.4-1.1 2.5-2.5 2.5z" />
            </g>
            <g>
                <path class="linea" d="m30 191l720-116.7" />
                <path class="punto" d="m30 193.5c-1.4 0-2.5-1.1-2.5-2.5 0-1.4 1.1-2.5 2.5-2.5 1.4 0 2.5 1.1 2.5 2.5 0 1.4-1.1 2.5-2.5 2.5z" />
                <path class="punto" d="m750 76.8c-1.4 0-2.5-1.1-2.5-2.5 0-1.3 1.1-2.5 2.5-2.5 1.4 0 2.5 1.2 2.5 2.5 0 1.4-1.1 2.5-2.5 2.5z" />
            </g>
            <g>
                <path class="linea" d="m30 16l720 81.7" />
                <path class="punto" d="m30 18.5c-1.4 0-2.5-1.1-2.5-2.5 0-1.4 1.1-2.5 2.5-2.5 1.4 0 2.5 1.1 2.5 2.5 0 1.4-1.1 2.5-2.5 2.5z" />
                <path class="punto" d="m750 100.2c-1.4 0-2.5-1.2-2.5-2.5 0-1.4 1.1-2.5 2.5-2.5 1.4 0 2.5 1.1 2.5 2.5 0 1.3-1.1 2.5-2.5 2.5z" />
            </g>
            <g>
                <path class="linea" d="m30 249.3l720 58.4" />
                <path class="punto" d="m30 251.8c-1.4 0-2.5-1.1-2.5-2.5 0-1.3 1.1-2.5 2.5-2.5 1.4 0 2.5 1.2 2.5 2.5 0 1.4-1.1 2.5-2.5 2.5z" />
                <path class="punto" d="m750 310.2c-1.4 0-2.5-1.2-2.5-2.5 0-1.4 1.1-2.5 2.5-2.5 1.4 0 2.5 1.1 2.5 2.5 0 1.3-1.1 2.5-2.5 2.5z" />
            </g>
            <g>
                <path class="linea" d="m30 74.3l720 23.4" />
                <path class="punto" d="m30 76.8c-1.4 0-2.5-1.1-2.5-2.5 0-1.3 1.1-2.5 2.5-2.5 1.4 0 2.5 1.2 2.5 2.5 0 1.4-1.1 2.5-2.5 2.5z" />
                <path class="punto" d="m750 100.2c-1.4 0-2.5-1.2-2.5-2.5 0-1.4 1.1-2.5 2.5-2.5 1.4 0 2.5 1.1 2.5 2.5 0 1.3-1.1 2.5-2.5 2.5z" />
            </g>
            <g>
                <path class="linea" d="m30 109.3l720 198.4" />
                <path class="punto" d="m30 111.8c-1.4 0-2.5-1.1-2.5-2.5 0-1.3 1.1-2.5 2.5-2.5 1.4 0 2.5 1.2 2.5 2.5 0 1.4-1.1 2.5-2.5 2.5z" />
                <path class="punto" d="m750 310.2c-1.4 0-2.5-1.2-2.5-2.5 0-1.4 1.1-2.5 2.5-2.5 1.4 0 2.5 1.1 2.5 2.5 0 1.3-1.1 2.5-2.5 2.5z" />
            </g>
            <g>
                <path class="linea" d="m30 74.3l720 93.4" />
                <path class="punto" d="m30 76.8c-1.4 0-2.5-1.1-2.5-2.5 0-1.3 1.1-2.5 2.5-2.5 1.4 0 2.5 1.2 2.5 2.5 0 1.4-1.1 2.5-2.5 2.5z" />
                <path class="punto" d="m750 170.2c-1.4 0-2.5-1.2-2.5-2.5 0-1.4 1.1-2.5 2.5-2.5 1.4 0 2.5 1.1 2.5 2.5 0 1.3-1.1 2.5-2.5 2.5z" />
            </g>
            <g>
                <path class="linea" d="m30 16l720 116.7" />
                <path class="punto" d="m30 18.5c-1.4 0-2.5-1.1-2.5-2.5 0-1.4 1.1-2.5 2.5-2.5 1.4 0 2.5 1.1 2.5 2.5 0 1.4-1.1 2.5-2.5 2.5z" />
                <path class="punto" d="m750 135.2c-1.4 0-2.5-1.2-2.5-2.5 0-1.4 1.1-2.5 2.5-2.5 1.4 0 2.5 1.1 2.5 2.5 0 1.3-1.1 2.5-2.5 2.5z" />
            </g>
            <g>
                <path class="linea" d="m30 109.3l720-93.3" />
                <path class="punto" d="m30 111.8c-1.4 0-2.5-1.1-2.5-2.5 0-1.3 1.1-2.5 2.5-2.5 1.4 0 2.5 1.2 2.5 2.5 0 1.4-1.1 2.5-2.5 2.5z" />
                <path class="punto" d="m750 18.5c-1.4 0-2.5-1.1-2.5-2.5 0-1.4 1.1-2.5 2.5-2.5 1.4 0 2.5 1.1 2.5 2.5 0 1.4-1.1 2.5-2.5 2.5z" />
            </g>
            <g>
                <path class="linea" d="m30 16l720 58.3" />
                <path class="punto" d="m30 18.5c-1.4 0-2.5-1.1-2.5-2.5 0-1.4 1.1-2.5 2.5-2.5 1.4 0 2.5 1.1 2.5 2.5 0 1.4-1.1 2.5-2.5 2.5z" />
                <path class="punto" d="m750 76.8c-1.4 0-2.5-1.1-2.5-2.5 0-1.3 1.1-2.5 2.5-2.5 1.4 0 2.5 1.2 2.5 2.5 0 1.4-1.1 2.5-2.5 2.5z" />
            </g>
            <g>
                <path class="linea" d="m30 109.3l720-93.3" />
                <path class="punto" d="m30 111.8c-1.4 0-2.5-1.1-2.5-2.5 0-1.3 1.1-2.5 2.5-2.5 1.4 0 2.5 1.2 2.5 2.5 0 1.4-1.1 2.5-2.5 2.5z" />
                <path class="punto" d="m750 18.5c-1.4 0-2.5-1.1-2.5-2.5 0-1.4 1.1-2.5 2.5-2.5 1.4 0 2.5 1.1 2.5 2.5 0 1.4-1.1 2.5-2.5 2.5z" />
            </g>
            <g>
                <path class="linea" d="m30 109.3l720 23.4" />
                <path class="punto" d="m30 111.8c-1.4 0-2.5-1.1-2.5-2.5 0-1.3 1.1-2.5 2.5-2.5 1.4 0 2.5 1.2 2.5 2.5 0 1.4-1.1 2.5-2.5 2.5z" />
                <path class="punto" d="m750 135.2c-1.4 0-2.5-1.2-2.5-2.5 0-1.4 1.1-2.5 2.5-2.5 1.4 0 2.5 1.1 2.5 2.5 0 1.3-1.1 2.5-2.5 2.5z" />
            </g>
            <g>
                <path class="linea" d="m30 16h720" />
                <path class="punto" d="m30 18.5c-1.4 0-2.5-1.1-2.5-2.5 0-1.4 1.1-2.5 2.5-2.5 1.4 0 2.5 1.1 2.5 2.5 0 1.4-1.1 2.5-2.5 2.5z" />
                <path class="punto" d="m750 18.5c-1.4 0-2.5-1.1-2.5-2.5 0-1.4 1.1-2.5 2.5-2.5 1.4 0 2.5 1.1 2.5 2.5 0 1.4-1.1 2.5-2.5 2.5z" />
            </g>
            <g>
                <path class="linea" d="m30 191h720" />
                <path class="punto" d="m30 193.5c-1.4 0-2.5-1.1-2.5-2.5 0-1.4 1.1-2.5 2.5-2.5 1.4 0 2.5 1.1 2.5 2.5 0 1.4-1.1 2.5-2.5 2.5z" />
                <path class="punto" d="m750 193.5c-1.4 0-2.5-1.1-2.5-2.5 0-1.4 1.1-2.5 2.5-2.5 1.4 0 2.5 1.1 2.5 2.5 0 1.4-1.1 2.5-2.5 2.5z" />
            </g>
            <g>
                <path class="linea" d="m30 74.3l720 58.4" />
                <path class="punto" d="m30 76.8c-1.4 0-2.5-1.1-2.5-2.5 0-1.3 1.1-2.5 2.5-2.5 1.4 0 2.5 1.2 2.5 2.5 0 1.4-1.1 2.5-2.5 2.5z" />
                <path class="punto" d="m750 135.2c-1.4 0-2.5-1.2-2.5-2.5 0-1.4 1.1-2.5 2.5-2.5 1.4 0 2.5 1.1 2.5 2.5 0 1.3-1.1 2.5-2.5 2.5z" />
            </g>
            <g>
                <path class="linea" d="m30 16l720 58.3" />
                <path class="punto" d="m30 18.5c-1.4 0-2.5-1.1-2.5-2.5 0-1.4 1.1-2.5 2.5-2.5 1.4 0 2.5 1.1 2.5 2.5 0 1.4-1.1 2.5-2.5 2.5z" />
                <path class="punto" d="m750 76.8c-1.4 0-2.5-1.1-2.5-2.5 0-1.3 1.1-2.5 2.5-2.5 1.4 0 2.5 1.2 2.5 2.5 0 1.4-1.1 2.5-2.5 2.5z" />
            </g>
            <g>
                <path class="linea" d="m30 167.7l720-11.7" />
                <path class="punto" d="m30 170.2c-1.4 0-2.5-1.2-2.5-2.5 0-1.4 1.1-2.5 2.5-2.5 1.4 0 2.5 1.1 2.5 2.5 0 1.3-1.1 2.5-2.5 2.5z" />
                <path class="punto" d="m750 158.5c-1.4 0-2.5-1.1-2.5-2.5 0-1.4 1.1-2.5 2.5-2.5 1.4 0 2.5 1.1 2.5 2.5 0 1.4-1.1 2.5-2.5 2.5z" />
            </g>
            <g>
                <path class="linea" d="m30 167.7l720-58.4" />
                <path class="punto" d="m30 170.2c-1.4 0-2.5-1.2-2.5-2.5 0-1.4 1.1-2.5 2.5-2.5 1.4 0 2.5 1.1 2.5 2.5 0 1.3-1.1 2.5-2.5 2.5z" />
                <path class="punto" d="m750 111.8c-1.4 0-2.5-1.1-2.5-2.5 0-1.3 1.1-2.5 2.5-2.5 1.4 0 2.5 1.2 2.5 2.5 0 1.4-1.1 2.5-2.5 2.5z" />
            </g>
            <g>
                <path class="linea" d="m30 51l720 23.3" />
                <path class="punto" d="m30 53.5c-1.4 0-2.5-1.1-2.5-2.5 0-1.4 1.1-2.5 2.5-2.5 1.4 0 2.5 1.1 2.5 2.5 0 1.4-1.1 2.5-2.5 2.5z" />
                <path class="punto" d="m750 76.8c-1.4 0-2.5-1.1-2.5-2.5 0-1.3 1.1-2.5 2.5-2.5 1.4 0 2.5 1.2 2.5 2.5 0 1.4-1.1 2.5-2.5 2.5z" />
            </g>
            <g>
                <path class="linea" d="m30 167.7l720 23.3" />
                <path class="punto" d="m30 170.2c-1.4 0-2.5-1.2-2.5-2.5 0-1.4 1.1-2.5 2.5-2.5 1.4 0 2.5 1.1 2.5 2.5 0 1.3-1.1 2.5-2.5 2.5z" />
                <path class="punto" d="m750 193.5c-1.4 0-2.5-1.1-2.5-2.5 0-1.4 1.1-2.5 2.5-2.5 1.4 0 2.5 1.1 2.5 2.5 0 1.4-1.1 2.5-2.5 2.5z" />
            </g>
            <g>
                <path class="linea" d="m30 109.3l720 93.4" />
                <path class="punto" d="m30 111.8c-1.4 0-2.5-1.1-2.5-2.5 0-1.3 1.1-2.5 2.5-2.5 1.4 0 2.5 1.2 2.5 2.5 0 1.4-1.1 2.5-2.5 2.5z" />
                <path class="punto" d="m750 205.2c-1.4 0-2.5-1.2-2.5-2.5 0-1.4 1.1-2.5 2.5-2.5 1.4 0 2.5 1.1 2.5 2.5 0 1.3-1.1 2.5-2.5 2.5z" />
            </g>
            <g>
                <path class="linea" d="m30 272.7l720-116.7" />
                <path class="punto" d="m30 275.2c-1.4 0-2.5-1.2-2.5-2.5 0-1.4 1.1-2.5 2.5-2.5 1.4 0 2.5 1.1 2.5 2.5 0 1.3-1.1 2.5-2.5 2.5z" />
                <path class="punto" d="m750 158.5c-1.4 0-2.5-1.1-2.5-2.5 0-1.4 1.1-2.5 2.5-2.5 1.4 0 2.5 1.1 2.5 2.5 0 1.4-1.1 2.5-2.5 2.5z" />
            </g>
            <g>
                <path class="linea" d="m30 156l720-140" />
                <path class="punto" d="m30 158.5c-1.4 0-2.5-1.1-2.5-2.5 0-1.4 1.1-2.5 2.5-2.5 1.4 0 2.5 1.1 2.5 2.5 0 1.4-1.1 2.5-2.5 2.5z" />
                <path class="punto" d="m750 18.5c-1.4 0-2.5-1.1-2.5-2.5 0-1.4 1.1-2.5 2.5-2.5 1.4 0 2.5 1.1 2.5 2.5 0 1.4-1.1 2.5-2.5 2.5z" />
            </g>
            <g>
                <path class="linea" d="m30 16l720 116.7" />
                <path class="punto" d="m30 18.5c-1.4 0-2.5-1.1-2.5-2.5 0-1.4 1.1-2.5 2.5-2.5 1.4 0 2.5 1.1 2.5 2.5 0 1.4-1.1 2.5-2.5 2.5z" />
                <path class="punto" d="m750 135.2c-1.4 0-2.5-1.2-2.5-2.5 0-1.4 1.1-2.5 2.5-2.5 1.4 0 2.5 1.1 2.5 2.5 0 1.3-1.1 2.5-2.5 2.5z" />
            </g>
            <g>
                <path class="linea" d="m30 74.3l720 23.4" />
                <path class="punto" d="m30 76.8c-1.4 0-2.5-1.1-2.5-2.5 0-1.3 1.1-2.5 2.5-2.5 1.4 0 2.5 1.2 2.5 2.5 0 1.4-1.1 2.5-2.5 2.5z" />
                <path class="punto" d="m750 100.2c-1.4 0-2.5-1.2-2.5-2.5 0-1.4 1.1-2.5 2.5-2.5 1.4 0 2.5 1.1 2.5 2.5 0 1.3-1.1 2.5-2.5 2.5z" />
            </g>
            <g>
                <path class="linea" d="m30 16l720 116.7" />
                <path class="punto" d="m30 18.5c-1.4 0-2.5-1.1-2.5-2.5 0-1.4 1.1-2.5 2.5-2.5 1.4 0 2.5 1.1 2.5 2.5 0 1.4-1.1 2.5-2.5 2.5z" />
                <path class="punto" d="m750 135.2c-1.4 0-2.5-1.2-2.5-2.5 0-1.4 1.1-2.5 2.5-2.5 1.4 0 2.5 1.1 2.5 2.5 0 1.3-1.1 2.5-2.5 2.5z" />
            </g>
            <g>
                <path class="linea" d="m30 132.7l720 140" />
                <path class="punto" d="m30 135.2c-1.4 0-2.5-1.2-2.5-2.5 0-1.4 1.1-2.5 2.5-2.5 1.4 0 2.5 1.1 2.5 2.5 0 1.3-1.1 2.5-2.5 2.5z" />
                <path class="punto" d="m750 275.2c-1.4 0-2.5-1.2-2.5-2.5 0-1.4 1.1-2.5 2.5-2.5 1.4 0 2.5 1.1 2.5 2.5 0 1.3-1.1 2.5-2.5 2.5z" />
            </g>
            <g>
                <path class="linea" d="m30 16l720 46.7" />
                <path class="punto" d="m30 18.5c-1.4 0-2.5-1.1-2.5-2.5 0-1.4 1.1-2.5 2.5-2.5 1.4 0 2.5 1.1 2.5 2.5 0 1.4-1.1 2.5-2.5 2.5z" />
                <path class="punto" d="m750 65.2c-1.4 0-2.5-1.2-2.5-2.5 0-1.4 1.1-2.5 2.5-2.5 1.4 0 2.5 1.1 2.5 2.5 0 1.3-1.1 2.5-2.5 2.5z" />
            </g>
            <g>
                <path class="linea" d="m30 74.3h720" />
                <path class="punto" d="m30 76.8c-1.4 0-2.5-1.1-2.5-2.5 0-1.3 1.1-2.5 2.5-2.5 1.4 0 2.5 1.2 2.5 2.5 0 1.4-1.1 2.5-2.5 2.5z" />
                <path class="punto" d="m750 76.8c-1.4 0-2.5-1.1-2.5-2.5 0-1.3 1.1-2.5 2.5-2.5 1.4 0 2.5 1.2 2.5 2.5 0 1.4-1.1 2.5-2.5 2.5z" />
            </g>
            <g>
                <path class="linea" d="m30 132.7h720" />
                <path class="punto" d="m30 135.2c-1.4 0-2.5-1.2-2.5-2.5 0-1.4 1.1-2.5 2.5-2.5 1.4 0 2.5 1.1 2.5 2.5 0 1.3-1.1 2.5-2.5 2.5z" />
                <path class="punto" d="m750 135.2c-1.4 0-2.5-1.2-2.5-2.5 0-1.4 1.1-2.5 2.5-2.5 1.4 0 2.5 1.1 2.5 2.5 0 1.3-1.1 2.5-2.5 2.5z" />
            </g>
            <g>
                <path class="linea" d="m30 132.7h720" />
                <path class="punto" d="m30 135.2c-1.4 0-2.5-1.2-2.5-2.5 0-1.4 1.1-2.5 2.5-2.5 1.4 0 2.5 1.1 2.5 2.5 0 1.3-1.1 2.5-2.5 2.5z" />
                <path class="punto" d="m750 135.2c-1.4 0-2.5-1.2-2.5-2.5 0-1.4 1.1-2.5 2.5-2.5 1.4 0 2.5 1.1 2.5 2.5 0 1.3-1.1 2.5-2.5 2.5z" />
            </g>
            <g>
                <path class="linea" d="m30 74.3l720 58.4" />
                <path class="punto" d="m30 76.8c-1.4 0-2.5-1.1-2.5-2.5 0-1.3 1.1-2.5 2.5-2.5 1.4 0 2.5 1.2 2.5 2.5 0 1.4-1.1 2.5-2.5 2.5z" />
                <path class="punto" d="m750 135.2c-1.4 0-2.5-1.2-2.5-2.5 0-1.4 1.1-2.5 2.5-2.5 1.4 0 2.5 1.1 2.5 2.5 0 1.3-1.1 2.5-2.5 2.5z" />
            </g>
            <g>
                <path class="linea" d="m30 167.7l720-11.7" />
                <path class="punto" d="m30 170.2c-1.4 0-2.5-1.2-2.5-2.5 0-1.4 1.1-2.5 2.5-2.5 1.4 0 2.5 1.1 2.5 2.5 0 1.3-1.1 2.5-2.5 2.5z" />
                <path class="punto" d="m750 158.5c-1.4 0-2.5-1.1-2.5-2.5 0-1.4 1.1-2.5 2.5-2.5 1.4 0 2.5 1.1 2.5 2.5 0 1.4-1.1 2.5-2.5 2.5z" />
            </g>
            <g>
                <path class="linea" d="m30 121l720 11.7" />
                <path class="punto" d="m30 123.5c-1.4 0-2.5-1.1-2.5-2.5 0-1.4 1.1-2.5 2.5-2.5 1.4 0 2.5 1.1 2.5 2.5 0 1.4-1.1 2.5-2.5 2.5z" />
                <path class="punto" d="m750 135.2c-1.4 0-2.5-1.2-2.5-2.5 0-1.4 1.1-2.5 2.5-2.5 1.4 0 2.5 1.1 2.5 2.5 0 1.3-1.1 2.5-2.5 2.5z" />
            </g>
            <g>
                <path class="linea" d="m30 16l720 23.3" />
                <path class="punto" d="m30 18.5c-1.4 0-2.5-1.1-2.5-2.5 0-1.4 1.1-2.5 2.5-2.5 1.4 0 2.5 1.1 2.5 2.5 0 1.4-1.1 2.5-2.5 2.5z" />
                <path class="punto" d="m750 41.8c-1.4 0-2.5-1.1-2.5-2.5 0-1.3 1.1-2.5 2.5-2.5 1.4 0 2.5 1.2 2.5 2.5 0 1.4-1.1 2.5-2.5 2.5z" />
            </g>
            <g>
                <path class="linea" d="m30 132.7l720 175" />
                <path class="punto" d="m30 135.2c-1.4 0-2.5-1.2-2.5-2.5 0-1.4 1.1-2.5 2.5-2.5 1.4 0 2.5 1.1 2.5 2.5 0 1.3-1.1 2.5-2.5 2.5z" />
                <path class="punto" d="m750 310.2c-1.4 0-2.5-1.2-2.5-2.5 0-1.4 1.1-2.5 2.5-2.5 1.4 0 2.5 1.1 2.5 2.5 0 1.3-1.1 2.5-2.5 2.5z" />
            </g>
            <g>
                <path class="linea" d="m30 366l720-210" />
                <path class="punto" d="m30 368.5c-1.4 0-2.5-1.1-2.5-2.5 0-1.4 1.1-2.5 2.5-2.5 1.4 0 2.5 1.1 2.5 2.5 0 1.4-1.1 2.5-2.5 2.5z" />
                <path class="punto" d="m750 158.5c-1.4 0-2.5-1.1-2.5-2.5 0-1.4 1.1-2.5 2.5-2.5 1.4 0 2.5 1.1 2.5 2.5 0 1.4-1.1 2.5-2.5 2.5z" />
            </g>
            <g>
                <path class="linea" d="m30 214.3l720-105" />
                <path class="punto" d="m30 216.8c-1.4 0-2.5-1.1-2.5-2.5 0-1.3 1.1-2.5 2.5-2.5 1.4 0 2.5 1.2 2.5 2.5 0 1.4-1.1 2.5-2.5 2.5z" />
                <path class="punto" d="m750 111.8c-1.4 0-2.5-1.1-2.5-2.5 0-1.3 1.1-2.5 2.5-2.5 1.4 0 2.5 1.2 2.5 2.5 0 1.4-1.1 2.5-2.5 2.5z" />
            </g>
            <g>
                <path class="linea" d="m30 331l720 35" />
                <path class="punto" d="m30 333.5c-1.4 0-2.5-1.1-2.5-2.5 0-1.4 1.1-2.5 2.5-2.5 1.4 0 2.5 1.1 2.5 2.5 0 1.4-1.1 2.5-2.5 2.5z" />
                <path class="punto" d="m750 368.5c-1.4 0-2.5-1.1-2.5-2.5 0-1.4 1.1-2.5 2.5-2.5 1.4 0 2.5 1.1 2.5 2.5 0 1.4-1.1 2.5-2.5 2.5z" />
            </g>
            <g>
                <path class="linea" d="m30 319.3l720-46.6" />
                <path class="punto" d="m30 321.8c-1.4 0-2.5-1.1-2.5-2.5 0-1.3 1.1-2.5 2.5-2.5 1.4 0 2.5 1.2 2.5 2.5 0 1.4-1.1 2.5-2.5 2.5z" />
                <path class="punto" d="m750 275.2c-1.4 0-2.5-1.2-2.5-2.5 0-1.4 1.1-2.5 2.5-2.5 1.4 0 2.5 1.1 2.5 2.5 0 1.3-1.1 2.5-2.5 2.5z" />
            </g>
            <g>
                <path class="linea" d="m30 51l720 198.3" />
                <path class="punto" d="m30 53.5c-1.4 0-2.5-1.1-2.5-2.5 0-1.4 1.1-2.5 2.5-2.5 1.4 0 2.5 1.1 2.5 2.5 0 1.4-1.1 2.5-2.5 2.5z" />
                <path class="punto" d="m750 251.8c-1.4 0-2.5-1.1-2.5-2.5 0-1.3 1.1-2.5 2.5-2.5 1.4 0 2.5 1.2 2.5 2.5 0 1.4-1.1 2.5-2.5 2.5z" />
            </g>
            <g>
                <path class="linea" d="m30 167.7l720-93.4" />
                <path class="punto" d="m30 170.2c-1.4 0-2.5-1.2-2.5-2.5 0-1.4 1.1-2.5 2.5-2.5 1.4 0 2.5 1.1 2.5 2.5 0 1.3-1.1 2.5-2.5 2.5z" />
                <path class="punto" d="m750 76.8c-1.4 0-2.5-1.1-2.5-2.5 0-1.3 1.1-2.5 2.5-2.5 1.4 0 2.5 1.2 2.5 2.5 0 1.4-1.1 2.5-2.5 2.5z" />
            </g>
            <g>
                <path class="linea" d="m30 86l720 23.3" />
                <path class="punto" d="m30 88.5c-1.4 0-2.5-1.1-2.5-2.5 0-1.4 1.1-2.5 2.5-2.5 1.4 0 2.5 1.1 2.5 2.5 0 1.4-1.1 2.5-2.5 2.5z" />
                <path class="punto" d="m750 111.8c-1.4 0-2.5-1.1-2.5-2.5 0-1.3 1.1-2.5 2.5-2.5 1.4 0 2.5 1.2 2.5 2.5 0 1.4-1.1 2.5-2.5 2.5z" />
            </g>
            <g>
                <path class="linea" d="m30 39.3l720 35" />
                <path class="punto" d="m30 41.8c-1.4 0-2.5-1.1-2.5-2.5 0-1.3 1.1-2.5 2.5-2.5 1.4 0 2.5 1.2 2.5 2.5 0 1.4-1.1 2.5-2.5 2.5z" />
                <path class="punto" d="m750 76.8c-1.4 0-2.5-1.1-2.5-2.5 0-1.3 1.1-2.5 2.5-2.5 1.4 0 2.5 1.2 2.5 2.5 0 1.4-1.1 2.5-2.5 2.5z" />
            </g>
            <g>
                <path class="linea" d="m30 97.7h720" />
                <path class="punto" d="m30 100.2c-1.4 0-2.5-1.2-2.5-2.5 0-1.4 1.1-2.5 2.5-2.5 1.4 0 2.5 1.1 2.5 2.5 0 1.3-1.1 2.5-2.5 2.5z" />
                <path class="punto" d="m750 100.2c-1.4 0-2.5-1.2-2.5-2.5 0-1.4 1.1-2.5 2.5-2.5 1.4 0 2.5 1.1 2.5 2.5 0 1.3-1.1 2.5-2.5 2.5z" />
            </g>
            <g>
                <path class="linea" d="m30 16l720 116.7" />
                <path class="punto" d="m30 18.5c-1.4 0-2.5-1.1-2.5-2.5 0-1.4 1.1-2.5 2.5-2.5 1.4 0 2.5 1.1 2.5 2.5 0 1.4-1.1 2.5-2.5 2.5z" />
                <path class="punto" d="m750 135.2c-1.4 0-2.5-1.2-2.5-2.5 0-1.4 1.1-2.5 2.5-2.5 1.4 0 2.5 1.1 2.5 2.5 0 1.3-1.1 2.5-2.5 2.5z" />
            </g>
            <g>
                <path class="linea" d="m30 179.3l720 70" />
                <path class="punto" d="m30 181.8c-1.4 0-2.5-1.1-2.5-2.5 0-1.3 1.1-2.5 2.5-2.5 1.4 0 2.5 1.2 2.5 2.5 0 1.4-1.1 2.5-2.5 2.5z" />
                <path class="punto" d="m750 251.8c-1.4 0-2.5-1.1-2.5-2.5 0-1.3 1.1-2.5 2.5-2.5 1.4 0 2.5 1.2 2.5 2.5 0 1.4-1.1 2.5-2.5 2.5z" />
            </g>
            <g>
                <path class="linea" d="m30 74.3l720 58.4" />
                <path class="punto" d="m30 76.8c-1.4 0-2.5-1.1-2.5-2.5 0-1.3 1.1-2.5 2.5-2.5 1.4 0 2.5 1.2 2.5 2.5 0 1.4-1.1 2.5-2.5 2.5z" />
                <path class="punto" d="m750 135.2c-1.4 0-2.5-1.2-2.5-2.5 0-1.4 1.1-2.5 2.5-2.5 1.4 0 2.5 1.1 2.5 2.5 0 1.3-1.1 2.5-2.5 2.5z" />
            </g>
            <g>
                <path class="linea" d="m30 74.3l720 233.4" />
                <path class="punto" d="m30 76.8c-1.4 0-2.5-1.1-2.5-2.5 0-1.3 1.1-2.5 2.5-2.5 1.4 0 2.5 1.2 2.5 2.5 0 1.4-1.1 2.5-2.5 2.5z" />
                <path class="punto" d="m750 310.2c-1.4 0-2.5-1.2-2.5-2.5 0-1.4 1.1-2.5 2.5-2.5 1.4 0 2.5 1.1 2.5 2.5 0 1.3-1.1 2.5-2.5 2.5z" />
            </g>
            <g>
                <path class="linea" d="m30 272.7l720 35" />
                <path class="punto" d="m30 275.2c-1.4 0-2.5-1.2-2.5-2.5 0-1.4 1.1-2.5 2.5-2.5 1.4 0 2.5 1.1 2.5 2.5 0 1.3-1.1 2.5-2.5 2.5z" />
                <path class="punto" d="m750 310.2c-1.4 0-2.5-1.2-2.5-2.5 0-1.4 1.1-2.5 2.5-2.5 1.4 0 2.5 1.1 2.5 2.5 0 1.3-1.1 2.5-2.5 2.5z" />
            </g>
            <g>
                <path class="l0" d="m30 156l720-105" />
                <path class="punto" d="m30 158.5c-1.4 0-2.5-1.1-2.5-2.5 0-1.4 1.1-2.5 2.5-2.5 1.4 0 2.5 1.1 2.5 2.5 0 1.4-1.1 2.5-2.5 2.5z" />
                <path class="punto" d="m750 53.5c-1.4 0-2.5-1.1-2.5-2.5 0-1.4 1.1-2.5 2.5-2.5 1.4 0 2.5 1.1 2.5 2.5 0 1.4-1.1 2.5-2.5 2.5z" />
            </g>
            <g>
                <path class="linea" d="m30 74.3l720 23.4" />
                <path class="punto" d="m30 76.8c-1.4 0-2.5-1.1-2.5-2.5 0-1.3 1.1-2.5 2.5-2.5 1.4 0 2.5 1.2 2.5 2.5 0 1.4-1.1 2.5-2.5 2.5z" />
                <path class="punto" d="m750 100.2c-1.4 0-2.5-1.2-2.5-2.5 0-1.4 1.1-2.5 2.5-2.5 1.4 0 2.5 1.1 2.5 2.5 0 1.3-1.1 2.5-2.5 2.5z" />
            </g>
            <g>
                <path class="linea" d="m30 51l720-35" />
                <path class="punto" d="m30 53.5c-1.4 0-2.5-1.1-2.5-2.5 0-1.4 1.1-2.5 2.5-2.5 1.4 0 2.5 1.1 2.5 2.5 0 1.4-1.1 2.5-2.5 2.5z" />
                <path class="punto" d="m750 18.5c-1.4 0-2.5-1.1-2.5-2.5 0-1.4 1.1-2.5 2.5-2.5 1.4 0 2.5 1.1 2.5 2.5 0 1.4-1.1 2.5-2.5 2.5z" />
            </g>
            <g>
                <path class="linea" d="m30 226l720-93.3" />
                <path class="punto" d="m30 228.5c-1.4 0-2.5-1.1-2.5-2.5 0-1.4 1.1-2.5 2.5-2.5 1.4 0 2.5 1.1 2.5 2.5 0 1.4-1.1 2.5-2.5 2.5z" />
                <path class="punto" d="m750 135.2c-1.4 0-2.5-1.2-2.5-2.5 0-1.4 1.1-2.5 2.5-2.5 1.4 0 2.5 1.1 2.5 2.5 0 1.3-1.1 2.5-2.5 2.5z" />
            </g>
            <g>
                <path class="linea" d="m30 156l720 151.7" />
                <path class="punto" d="m30 158.5c-1.4 0-2.5-1.1-2.5-2.5 0-1.4 1.1-2.5 2.5-2.5 1.4 0 2.5 1.1 2.5 2.5 0 1.4-1.1 2.5-2.5 2.5z" />
                <path class="punto" d="m750 310.2c-1.4 0-2.5-1.2-2.5-2.5 0-1.4 1.1-2.5 2.5-2.5 1.4 0 2.5 1.1 2.5 2.5 0 1.3-1.1 2.5-2.5 2.5z" />
            </g>
            <g>
                <path class="linea" d="m30 261l720-163.3" />
                <path class="punto" d="m30 263.5c-1.4 0-2.5-1.1-2.5-2.5 0-1.4 1.1-2.5 2.5-2.5 1.4 0 2.5 1.1 2.5 2.5 0 1.4-1.1 2.5-2.5 2.5z" />
                <path class="punto" d="m750 100.2c-1.4 0-2.5-1.2-2.5-2.5 0-1.4 1.1-2.5 2.5-2.5 1.4 0 2.5 1.1 2.5 2.5 0 1.3-1.1 2.5-2.5 2.5z" />
            </g>
            <g>
                <path class="linea" d="m30 132.7l720-116.7" />
                <path class="punto" d="m30 135.2c-1.4 0-2.5-1.2-2.5-2.5 0-1.4 1.1-2.5 2.5-2.5 1.4 0 2.5 1.1 2.5 2.5 0 1.3-1.1 2.5-2.5 2.5z" />
                <path class="punto" d="m750 18.5c-1.4 0-2.5-1.1-2.5-2.5 0-1.4 1.1-2.5 2.5-2.5 1.4 0 2.5 1.1 2.5 2.5 0 1.4-1.1 2.5-2.5 2.5z" />
            </g>
            <g>
                <path class="linea" d="m30 132.7l720-23.4" />
                <path class="punto" d="m30 135.2c-1.4 0-2.5-1.2-2.5-2.5 0-1.4 1.1-2.5 2.5-2.5 1.4 0 2.5 1.1 2.5 2.5 0 1.3-1.1 2.5-2.5 2.5z" />
                <path class="punto" d="m750 111.8c-1.4 0-2.5-1.1-2.5-2.5 0-1.3 1.1-2.5 2.5-2.5 1.4 0 2.5 1.2 2.5 2.5 0 1.4-1.1 2.5-2.5 2.5z" />
            </g>
            <g>
                <path class="linea" d="m30 74.3l720-58.3" />
                <path class="punto" d="m30 76.8c-1.4 0-2.5-1.1-2.5-2.5 0-1.3 1.1-2.5 2.5-2.5 1.4 0 2.5 1.2 2.5 2.5 0 1.4-1.1 2.5-2.5 2.5z" />
                <path class="punto" d="m750 18.5c-1.4 0-2.5-1.1-2.5-2.5 0-1.4 1.1-2.5 2.5-2.5 1.4 0 2.5 1.1 2.5 2.5 0 1.4-1.1 2.5-2.5 2.5z" />
            </g>
            <g>
                <path class="linea" d="m30 132.7h720" />
                <path class="punto" d="m30 135.2c-1.4 0-2.5-1.2-2.5-2.5 0-1.4 1.1-2.5 2.5-2.5 1.4 0 2.5 1.1 2.5 2.5 0 1.3-1.1 2.5-2.5 2.5z" />
                <path class="punto" d="m750 135.2c-1.4 0-2.5-1.2-2.5-2.5 0-1.4 1.1-2.5 2.5-2.5 1.4 0 2.5 1.1 2.5 2.5 0 1.3-1.1 2.5-2.5 2.5z" />
            </g>
            <g>
                <path class="linea" d="m30 132.7h720" />
                <path class="punto" d="m30 135.2c-1.4 0-2.5-1.2-2.5-2.5 0-1.4 1.1-2.5 2.5-2.5 1.4 0 2.5 1.1 2.5 2.5 0 1.3-1.1 2.5-2.5 2.5z" />
                <path class="punto" d="m750 135.2c-1.4 0-2.5-1.2-2.5-2.5 0-1.4 1.1-2.5 2.5-2.5 1.4 0 2.5 1.1 2.5 2.5 0 1.3-1.1 2.5-2.5 2.5z" />
            </g>
            <g>
                <path class="linea" d="m30 121l720-46.7" />
                <path class="punto" d="m30 123.5c-1.4 0-2.5-1.1-2.5-2.5 0-1.4 1.1-2.5 2.5-2.5 1.4 0 2.5 1.1 2.5 2.5 0 1.4-1.1 2.5-2.5 2.5z" />
                <path class="punto" d="m750 76.8c-1.4 0-2.5-1.1-2.5-2.5 0-1.3 1.1-2.5 2.5-2.5 1.4 0 2.5 1.2 2.5 2.5 0 1.4-1.1 2.5-2.5 2.5z" />
            </g>
            <g>
                <path class="linea" d="m30 97.7l720-23.4" />
                <path class="punto" d="m30 100.2c-1.4 0-2.5-1.2-2.5-2.5 0-1.4 1.1-2.5 2.5-2.5 1.4 0 2.5 1.1 2.5 2.5 0 1.3-1.1 2.5-2.5 2.5z" />
                <path class="punto" d="m750 76.8c-1.4 0-2.5-1.1-2.5-2.5 0-1.3 1.1-2.5 2.5-2.5 1.4 0 2.5 1.2 2.5 2.5 0 1.4-1.1 2.5-2.5 2.5z" />
            </g>
            <g>
                <path class="linea" d="m30 226l720-93.3" />
                <path class="punto" d="m30 228.5c-1.4 0-2.5-1.1-2.5-2.5 0-1.4 1.1-2.5 2.5-2.5 1.4 0 2.5 1.1 2.5 2.5 0 1.4-1.1 2.5-2.5 2.5z" />
                <path class="punto" d="m750 135.2c-1.4 0-2.5-1.2-2.5-2.5 0-1.4 1.1-2.5 2.5-2.5 1.4 0 2.5 1.1 2.5 2.5 0 1.3-1.1 2.5-2.5 2.5z" />
            </g>
            <g>
                <path class="linea" d="m30 97.7l720-81.7" />
                <path class="punto" d="m30 100.2c-1.4 0-2.5-1.2-2.5-2.5 0-1.4 1.1-2.5 2.5-2.5 1.4 0 2.5 1.1 2.5 2.5 0 1.3-1.1 2.5-2.5 2.5z" />
                <path class="punto" d="m750 18.5c-1.4 0-2.5-1.1-2.5-2.5 0-1.4 1.1-2.5 2.5-2.5 1.4 0 2.5 1.1 2.5 2.5 0 1.4-1.1 2.5-2.5 2.5z" />
            </g>
            <g>
                <path class="linea" d="m30 214.3l720-23.3" />
                <path class="punto" d="m30 216.8c-1.4 0-2.5-1.1-2.5-2.5 0-1.3 1.1-2.5 2.5-2.5 1.4 0 2.5 1.2 2.5 2.5 0 1.4-1.1 2.5-2.5 2.5z" />
                <path class="punto" d="m750 193.5c-1.4 0-2.5-1.1-2.5-2.5 0-1.4 1.1-2.5 2.5-2.5 1.4 0 2.5 1.1 2.5 2.5 0 1.4-1.1 2.5-2.5 2.5z" />
            </g>
            <g>
                <path class="linea" d="m30 74.3l720-35" />
                <path class="punto" d="m30 76.8c-1.4 0-2.5-1.1-2.5-2.5 0-1.3 1.1-2.5 2.5-2.5 1.4 0 2.5 1.2 2.5 2.5 0 1.4-1.1 2.5-2.5 2.5z" />
                <path class="punto" d="m750 41.8c-1.4 0-2.5-1.1-2.5-2.5 0-1.3 1.1-2.5 2.5-2.5 1.4 0 2.5 1.2 2.5 2.5 0 1.4-1.1 2.5-2.5 2.5z" />
            </g>
            <g>
                <path class="linea" d="m30 249.3l720 116.7" />
                <path class="punto" d="m30 251.8c-1.4 0-2.5-1.1-2.5-2.5 0-1.3 1.1-2.5 2.5-2.5 1.4 0 2.5 1.2 2.5 2.5 0 1.4-1.1 2.5-2.5 2.5z" />
                <path class="punto" d="m750 368.5c-1.4 0-2.5-1.1-2.5-2.5 0-1.4 1.1-2.5 2.5-2.5 1.4 0 2.5 1.1 2.5 2.5 0 1.4-1.1 2.5-2.5 2.5z" />
            </g>
            <g>
                <path class="linea" d="m30 191l720-58.3" />
                <path class="punto" d="m30 193.5c-1.4 0-2.5-1.1-2.5-2.5 0-1.4 1.1-2.5 2.5-2.5 1.4 0 2.5 1.1 2.5 2.5 0 1.4-1.1 2.5-2.5 2.5z" />
                <path class="punto" d="m750 135.2c-1.4 0-2.5-1.2-2.5-2.5 0-1.4 1.1-2.5 2.5-2.5 1.4 0 2.5 1.1 2.5 2.5 0 1.3-1.1 2.5-2.5 2.5z" />
            </g>
            <g>
                <path class="linea" d="m30 272.7l720-198.4" />
                <path class="punto" d="m30 275.2c-1.4 0-2.5-1.2-2.5-2.5 0-1.4 1.1-2.5 2.5-2.5 1.4 0 2.5 1.1 2.5 2.5 0 1.3-1.1 2.5-2.5 2.5z" />
                <path class="punto" d="m750 76.8c-1.4 0-2.5-1.1-2.5-2.5 0-1.3 1.1-2.5 2.5-2.5 1.4 0 2.5 1.2 2.5 2.5 0 1.4-1.1 2.5-2.5 2.5z" />
            </g>
            <g>
                <path class="linea" d="m30 109.3l720 23.4" />
                <path class="punto" d="m30 111.8c-1.4 0-2.5-1.1-2.5-2.5 0-1.3 1.1-2.5 2.5-2.5 1.4 0 2.5 1.2 2.5 2.5 0 1.4-1.1 2.5-2.5 2.5z" />
                <path class="punto" d="m750 135.2c-1.4 0-2.5-1.2-2.5-2.5 0-1.4 1.1-2.5 2.5-2.5 1.4 0 2.5 1.1 2.5 2.5 0 1.3-1.1 2.5-2.5 2.5z" />
            </g>
            <g>
                <path class="linea" d="m30 214.3l720-81.6" />
                <path class="punto" d="m30 216.8c-1.4 0-2.5-1.1-2.5-2.5 0-1.3 1.1-2.5 2.5-2.5 1.4 0 2.5 1.2 2.5 2.5 0 1.4-1.1 2.5-2.5 2.5z" />
                <path class="punto" d="m750 135.2c-1.4 0-2.5-1.2-2.5-2.5 0-1.4 1.1-2.5 2.5-2.5 1.4 0 2.5 1.1 2.5 2.5 0 1.3-1.1 2.5-2.5 2.5z" />
            </g>
            <g>
                <path class="linea" d="m30 191l720-35" />
                <path class="punto" d="m30 193.5c-1.4 0-2.5-1.1-2.5-2.5 0-1.4 1.1-2.5 2.5-2.5 1.4 0 2.5 1.1 2.5 2.5 0 1.4-1.1 2.5-2.5 2.5z" />
                <path class="punto" d="m750 158.5c-1.4 0-2.5-1.1-2.5-2.5 0-1.4 1.1-2.5 2.5-2.5 1.4 0 2.5 1.1 2.5 2.5 0 1.4-1.1 2.5-2.5 2.5z" />
            </g>
            <g>
                <path class="l0" d="m30 74.3l720-23.3" />
                <path class="punto" d="m30 76.8c-1.4 0-2.5-1.1-2.5-2.5 0-1.3 1.1-2.5 2.5-2.5 1.4 0 2.5 1.2 2.5 2.5 0 1.4-1.1 2.5-2.5 2.5z" />
                <path class="punto" d="m750 53.5c-1.4 0-2.5-1.1-2.5-2.5 0-1.4 1.1-2.5 2.5-2.5 1.4 0 2.5 1.1 2.5 2.5 0 1.4-1.1 2.5-2.5 2.5z" />
            </g>
            <g>
                <path class="linea" d="m30 156l720-140" />
                <path class="punto" d="m30 158.5c-1.4 0-2.5-1.1-2.5-2.5 0-1.4 1.1-2.5 2.5-2.5 1.4 0 2.5 1.1 2.5 2.5 0 1.4-1.1 2.5-2.5 2.5z" />
                <path class="punto" d="m750 18.5c-1.4 0-2.5-1.1-2.5-2.5 0-1.4 1.1-2.5 2.5-2.5 1.4 0 2.5 1.1 2.5 2.5 0 1.4-1.1 2.5-2.5 2.5z" />
            </g>
            <g>
                <path class="linea" d="m30 179.3l720 11.7" />
                <path class="punto" d="m30 181.8c-1.4 0-2.5-1.1-2.5-2.5 0-1.3 1.1-2.5 2.5-2.5 1.4 0 2.5 1.2 2.5 2.5 0 1.4-1.1 2.5-2.5 2.5z" />
                <path class="punto" d="m750 193.5c-1.4 0-2.5-1.1-2.5-2.5 0-1.4 1.1-2.5 2.5-2.5 1.4 0 2.5 1.1 2.5 2.5 0 1.4-1.1 2.5-2.5 2.5z" />
            </g>
            <g>
                <path class="linea" d="m30 191l720-81.7" />
                <path class="punto" d="m30 193.5c-1.4 0-2.5-1.1-2.5-2.5 0-1.4 1.1-2.5 2.5-2.5 1.4 0 2.5 1.1 2.5 2.5 0 1.4-1.1 2.5-2.5 2.5z" />
                <path class="punto" d="m750 111.8c-1.4 0-2.5-1.1-2.5-2.5 0-1.3 1.1-2.5 2.5-2.5 1.4 0 2.5 1.2 2.5 2.5 0 1.4-1.1 2.5-2.5 2.5z" />
            </g>
            <g>
                <path class="linea" d="m30 97.7l720-23.4" />
                <path class="punto" d="m30 100.2c-1.4 0-2.5-1.2-2.5-2.5 0-1.4 1.1-2.5 2.5-2.5 1.4 0 2.5 1.1 2.5 2.5 0 1.3-1.1 2.5-2.5 2.5z" />
                <path class="punto" d="m750 76.8c-1.4 0-2.5-1.1-2.5-2.5 0-1.3 1.1-2.5 2.5-2.5 1.4 0 2.5 1.2 2.5 2.5 0 1.4-1.1 2.5-2.5 2.5z" />
            </g>
            <g>
                <path class="linea" d="m30 249.3l720 58.4" />
                <path class="punto" d="m30 251.8c-1.4 0-2.5-1.1-2.5-2.5 0-1.3 1.1-2.5 2.5-2.5 1.4 0 2.5 1.2 2.5 2.5 0 1.4-1.1 2.5-2.5 2.5z" />
                <path class="punto" d="m750 310.2c-1.4 0-2.5-1.2-2.5-2.5 0-1.4 1.1-2.5 2.5-2.5 1.4 0 2.5 1.1 2.5 2.5 0 1.3-1.1 2.5-2.5 2.5z" />
            </g>
            <g>
                <path class="linea" d="m30 39.3l720 151.7" />
                <path class="punto" d="m30 41.8c-1.4 0-2.5-1.1-2.5-2.5 0-1.3 1.1-2.5 2.5-2.5 1.4 0 2.5 1.2 2.5 2.5 0 1.4-1.1 2.5-2.5 2.5z" />
                <path class="punto" d="m750 193.5c-1.4 0-2.5-1.1-2.5-2.5 0-1.4 1.1-2.5 2.5-2.5 1.4 0 2.5 1.1 2.5 2.5 0 1.4-1.1 2.5-2.5 2.5z" />
            </g>
            <g>
                <path class="linea" d="m30 191l720 105" />
                <path class="punto" d="m30 193.5c-1.4 0-2.5-1.1-2.5-2.5 0-1.4 1.1-2.5 2.5-2.5 1.4 0 2.5 1.1 2.5 2.5 0 1.4-1.1 2.5-2.5 2.5z" />
                <path class="punto" d="m750 298.5c-1.4 0-2.5-1.1-2.5-2.5 0-1.4 1.1-2.5 2.5-2.5 1.4 0 2.5 1.1 2.5 2.5 0 1.4-1.1 2.5-2.5 2.5z" />
            </g>
            <g>
                <path class="linea" d="m30 62.7l720 105" />
                <path class="punto" d="m30 65.2c-1.4 0-2.5-1.2-2.5-2.5 0-1.4 1.1-2.5 2.5-2.5 1.4 0 2.5 1.1 2.5 2.5 0 1.3-1.1 2.5-2.5 2.5z" />
                <path class="punto" d="m750 170.2c-1.4 0-2.5-1.2-2.5-2.5 0-1.4 1.1-2.5 2.5-2.5 1.4 0 2.5 1.1 2.5 2.5 0 1.3-1.1 2.5-2.5 2.5z" />
            </g>
            <g>
                <path class="linea" d="m30 86l720 93.3" />
                <path class="punto" d="m30 88.5c-1.4 0-2.5-1.1-2.5-2.5 0-1.4 1.1-2.5 2.5-2.5 1.4 0 2.5 1.1 2.5 2.5 0 1.4-1.1 2.5-2.5 2.5z" />
                <path class="punto" d="m750 181.8c-1.4 0-2.5-1.1-2.5-2.5 0-1.3 1.1-2.5 2.5-2.5 1.4 0 2.5 1.2 2.5 2.5 0 1.4-1.1 2.5-2.5 2.5z" />
            </g>
            <g>
                <path class="linea" d="m30 132.7l720 81.6" />
                <path class="punto" d="m30 135.2c-1.4 0-2.5-1.2-2.5-2.5 0-1.4 1.1-2.5 2.5-2.5 1.4 0 2.5 1.1 2.5 2.5 0 1.3-1.1 2.5-2.5 2.5z" />
                <path class="punto" d="m750 216.8c-1.4 0-2.5-1.1-2.5-2.5 0-1.3 1.1-2.5 2.5-2.5 1.4 0 2.5 1.2 2.5 2.5 0 1.4-1.1 2.5-2.5 2.5z" />
            </g>
            <g>
                <path class="linea" d="m30 62.7l720-46.7" />
                <path class="punto" d="m30 65.2c-1.4 0-2.5-1.2-2.5-2.5 0-1.4 1.1-2.5 2.5-2.5 1.4 0 2.5 1.1 2.5 2.5 0 1.3-1.1 2.5-2.5 2.5z" />
                <path class="punto" d="m750 18.5c-1.4 0-2.5-1.1-2.5-2.5 0-1.4 1.1-2.5 2.5-2.5 1.4 0 2.5 1.1 2.5 2.5 0 1.4-1.1 2.5-2.5 2.5z" />
            </g>
            <g>
                <path class="linea" d="m30 342.7l720-93.4" />
                <path class="punto" d="m30 345.2c-1.4 0-2.5-1.2-2.5-2.5 0-1.4 1.1-2.5 2.5-2.5 1.4 0 2.5 1.1 2.5 2.5 0 1.3-1.1 2.5-2.5 2.5z" />
                <path class="punto" d="m750 251.8c-1.4 0-2.5-1.1-2.5-2.5 0-1.3 1.1-2.5 2.5-2.5 1.4 0 2.5 1.2 2.5 2.5 0 1.4-1.1 2.5-2.5 2.5z" />
            </g>
            <g>
                <path class="linea" d="m30 74.3l720 116.7" />
                <path class="punto" d="m30 76.8c-1.4 0-2.5-1.1-2.5-2.5 0-1.3 1.1-2.5 2.5-2.5 1.4 0 2.5 1.2 2.5 2.5 0 1.4-1.1 2.5-2.5 2.5z" />
                <path class="punto" d="m750 193.5c-1.4 0-2.5-1.1-2.5-2.5 0-1.4 1.1-2.5 2.5-2.5 1.4 0 2.5 1.1 2.5 2.5 0 1.4-1.1 2.5-2.5 2.5z" />
            </g>
            <g>
                <path class="linea" d="m30 74.3l720 58.4" />
                <path class="punto" d="m30 76.8c-1.4 0-2.5-1.1-2.5-2.5 0-1.3 1.1-2.5 2.5-2.5 1.4 0 2.5 1.2 2.5 2.5 0 1.4-1.1 2.5-2.5 2.5z" />
                <path class="punto" d="m750 135.2c-1.4 0-2.5-1.2-2.5-2.5 0-1.4 1.1-2.5 2.5-2.5 1.4 0 2.5 1.1 2.5 2.5 0 1.3-1.1 2.5-2.5 2.5z" />
            </g>
            <g>
                <path class="linea" d="m30 272.7l720 23.3" />
                <path class="punto" d="m30 275.2c-1.4 0-2.5-1.2-2.5-2.5 0-1.4 1.1-2.5 2.5-2.5 1.4 0 2.5 1.1 2.5 2.5 0 1.3-1.1 2.5-2.5 2.5z" />
                <path class="punto" d="m750 298.5c-1.4 0-2.5-1.1-2.5-2.5 0-1.4 1.1-2.5 2.5-2.5 1.4 0 2.5 1.1 2.5 2.5 0 1.4-1.1 2.5-2.5 2.5z" />
            </g>
            <g>
                <path class="linea" d="m30 132.7l720 116.6" />
                <path class="punto" d="m30 135.2c-1.4 0-2.5-1.2-2.5-2.5 0-1.4 1.1-2.5 2.5-2.5 1.4 0 2.5 1.1 2.5 2.5 0 1.3-1.1 2.5-2.5 2.5z" />
                <path class="punto" d="m750 251.8c-1.4 0-2.5-1.1-2.5-2.5 0-1.3 1.1-2.5 2.5-2.5 1.4 0 2.5 1.2 2.5 2.5 0 1.4-1.1 2.5-2.5 2.5z" />
            </g>
            <g>
                <path class="linea" d="m30 272.7l720-151.7" />
                <path class="punto" d="m30 275.2c-1.4 0-2.5-1.2-2.5-2.5 0-1.4 1.1-2.5 2.5-2.5 1.4 0 2.5 1.1 2.5 2.5 0 1.3-1.1 2.5-2.5 2.5z" />
                <path class="punto" d="m750 123.5c-1.4 0-2.5-1.1-2.5-2.5 0-1.4 1.1-2.5 2.5-2.5 1.4 0 2.5 1.1 2.5 2.5 0 1.4-1.1 2.5-2.5 2.5z" />
            </g>
            <g>
                <path class="linea" d="m30 109.3l720 81.7" />
                <path class="punto" d="m30 111.8c-1.4 0-2.5-1.1-2.5-2.5 0-1.3 1.1-2.5 2.5-2.5 1.4 0 2.5 1.2 2.5 2.5 0 1.4-1.1 2.5-2.5 2.5z" />
                <path class="punto" d="m750 193.5c-1.4 0-2.5-1.1-2.5-2.5 0-1.4 1.1-2.5 2.5-2.5 1.4 0 2.5 1.1 2.5 2.5 0 1.4-1.1 2.5-2.5 2.5z" />
            </g>
            <g>
                <path class="linea" d="m30 237.7l720 128.3" />
                <path class="punto" d="m30 240.2c-1.4 0-2.5-1.2-2.5-2.5 0-1.4 1.1-2.5 2.5-2.5 1.4 0 2.5 1.1 2.5 2.5 0 1.3-1.1 2.5-2.5 2.5z" />
                <path class="punto" d="m750 368.5c-1.4 0-2.5-1.1-2.5-2.5 0-1.4 1.1-2.5 2.5-2.5 1.4 0 2.5 1.1 2.5 2.5 0 1.4-1.1 2.5-2.5 2.5z" />
            </g>
            <g>
                <path class="linea" d="m30 272.7l720-23.4" />
                <path class="punto" d="m30 275.2c-1.4 0-2.5-1.2-2.5-2.5 0-1.4 1.1-2.5 2.5-2.5 1.4 0 2.5 1.1 2.5 2.5 0 1.3-1.1 2.5-2.5 2.5z" />
                <path class="punto" d="m750 251.8c-1.4 0-2.5-1.1-2.5-2.5 0-1.3 1.1-2.5 2.5-2.5 1.4 0 2.5 1.2 2.5 2.5 0 1.4-1.1 2.5-2.5 2.5z" />
            </g>
            <g>
                <path class="linea" d="m30 156l720 210" />
                <path class="punto" d="m30 158.5c-1.4 0-2.5-1.1-2.5-2.5 0-1.4 1.1-2.5 2.5-2.5 1.4 0 2.5 1.1 2.5 2.5 0 1.4-1.1 2.5-2.5 2.5z" />
                <path class="punto" d="m750 368.5c-1.4 0-2.5-1.1-2.5-2.5 0-1.4 1.1-2.5 2.5-2.5 1.4 0 2.5 1.1 2.5 2.5 0 1.4-1.1 2.5-2.5 2.5z" />
            </g>
            <g>
                <path class="linea" d="m30 132.7l720 23.3" />
                <path class="punto" d="m30 135.2c-1.4 0-2.5-1.2-2.5-2.5 0-1.4 1.1-2.5 2.5-2.5 1.4 0 2.5 1.1 2.5 2.5 0 1.3-1.1 2.5-2.5 2.5z" />
                <path class="punto" d="m750 158.5c-1.4 0-2.5-1.1-2.5-2.5 0-1.4 1.1-2.5 2.5-2.5 1.4 0 2.5 1.1 2.5 2.5 0 1.4-1.1 2.5-2.5 2.5z" />
            </g>
            <g>
                <path class="linea" d="m30 202.7l720-11.7" />
                <path class="punto" d="m30 205.2c-1.4 0-2.5-1.2-2.5-2.5 0-1.4 1.1-2.5 2.5-2.5 1.4 0 2.5 1.1 2.5 2.5 0 1.3-1.1 2.5-2.5 2.5z" />
                <path class="punto" d="m750 193.5c-1.4 0-2.5-1.1-2.5-2.5 0-1.4 1.1-2.5 2.5-2.5 1.4 0 2.5 1.1 2.5 2.5 0 1.4-1.1 2.5-2.5 2.5z" />
            </g>
            <g>
                <path class="linea" d="m30 86l720 46.7" />
                <path class="punto" d="m30 88.5c-1.4 0-2.5-1.1-2.5-2.5 0-1.4 1.1-2.5 2.5-2.5 1.4 0 2.5 1.1 2.5 2.5 0 1.4-1.1 2.5-2.5 2.5z" />
                <path class="punto" d="m750 135.2c-1.4 0-2.5-1.2-2.5-2.5 0-1.4 1.1-2.5 2.5-2.5 1.4 0 2.5 1.1 2.5 2.5 0 1.3-1.1 2.5-2.5 2.5z" />
            </g>
            <g>
                <path class="linea" d="m30 62.7l720 46.6" />
                <path class="punto" d="m30 65.2c-1.4 0-2.5-1.2-2.5-2.5 0-1.4 1.1-2.5 2.5-2.5 1.4 0 2.5 1.1 2.5 2.5 0 1.3-1.1 2.5-2.5 2.5z" />
                <path class="punto" d="m750 111.8c-1.4 0-2.5-1.1-2.5-2.5 0-1.3 1.1-2.5 2.5-2.5 1.4 0 2.5 1.2 2.5 2.5 0 1.4-1.1 2.5-2.5 2.5z" />
            </g>
            <g>
                <path class="linea" d="m30 74.3l720 116.7" />
                <path class="punto" d="m30 76.8c-1.4 0-2.5-1.1-2.5-2.5 0-1.3 1.1-2.5 2.5-2.5 1.4 0 2.5 1.2 2.5 2.5 0 1.4-1.1 2.5-2.5 2.5z" />
                <path class="punto" d="m750 193.5c-1.4 0-2.5-1.1-2.5-2.5 0-1.4 1.1-2.5 2.5-2.5 1.4 0 2.5 1.1 2.5 2.5 0 1.4-1.1 2.5-2.5 2.5z" />
            </g>
            <g>
                <path class="linea" d="m30 97.7h720" />
                <path class="punto" d="m30 100.2c-1.4 0-2.5-1.2-2.5-2.5 0-1.4 1.1-2.5 2.5-2.5 1.4 0 2.5 1.1 2.5 2.5 0 1.3-1.1 2.5-2.5 2.5z" />
                <path class="punto" d="m750 100.2c-1.4 0-2.5-1.2-2.5-2.5 0-1.4 1.1-2.5 2.5-2.5 1.4 0 2.5 1.1 2.5 2.5 0 1.3-1.1 2.5-2.5 2.5z" />
            </g>
            <g>
                <path class="linea" d="m30 132.7l720 58.3" />
                <path class="punto" d="m30 135.2c-1.4 0-2.5-1.2-2.5-2.5 0-1.4 1.1-2.5 2.5-2.5 1.4 0 2.5 1.1 2.5 2.5 0 1.3-1.1 2.5-2.5 2.5z" />
                <path class="punto" d="m750 193.5c-1.4 0-2.5-1.1-2.5-2.5 0-1.4 1.1-2.5 2.5-2.5 1.4 0 2.5 1.1 2.5 2.5 0 1.4-1.1 2.5-2.5 2.5z" />
            </g>
            <g>
                <path class="linea" d="m30 214.3l720-198.3" />
                <path class="punto" d="m30 216.8c-1.4 0-2.5-1.1-2.5-2.5 0-1.3 1.1-2.5 2.5-2.5 1.4 0 2.5 1.2 2.5 2.5 0 1.4-1.1 2.5-2.5 2.5z" />
                <path class="punto" d="m750 18.5c-1.4 0-2.5-1.1-2.5-2.5 0-1.4 1.1-2.5 2.5-2.5 1.4 0 2.5 1.1 2.5 2.5 0 1.4-1.1 2.5-2.5 2.5z" />
            </g>
            <g>
                <path class="linea" d="m30 132.7l720 58.3" />
                <path class="punto" d="m30 135.2c-1.4 0-2.5-1.2-2.5-2.5 0-1.4 1.1-2.5 2.5-2.5 1.4 0 2.5 1.1 2.5 2.5 0 1.3-1.1 2.5-2.5 2.5z" />
                <path class="punto" d="m750 193.5c-1.4 0-2.5-1.1-2.5-2.5 0-1.4 1.1-2.5 2.5-2.5 1.4 0 2.5 1.1 2.5 2.5 0 1.4-1.1 2.5-2.5 2.5z" />
            </g>
            <g>
                <path class="linea" d="m30 249.3h720" />
                <path class="punto" d="m30 251.8c-1.4 0-2.5-1.1-2.5-2.5 0-1.3 1.1-2.5 2.5-2.5 1.4 0 2.5 1.2 2.5 2.5 0 1.4-1.1 2.5-2.5 2.5z" />
                <path class="punto" d="m750 251.8c-1.4 0-2.5-1.1-2.5-2.5 0-1.3 1.1-2.5 2.5-2.5 1.4 0 2.5 1.2 2.5 2.5 0 1.4-1.1 2.5-2.5 2.5z" />
            </g>
            <g>
                <path class="linea" d="m30 74.3l720-58.3" />
                <path class="punto" d="m30 76.8c-1.4 0-2.5-1.1-2.5-2.5 0-1.3 1.1-2.5 2.5-2.5 1.4 0 2.5 1.2 2.5 2.5 0 1.4-1.1 2.5-2.5 2.5z" />
                <path class="punto" d="m750 18.5c-1.4 0-2.5-1.1-2.5-2.5 0-1.4 1.1-2.5 2.5-2.5 1.4 0 2.5 1.1 2.5 2.5 0 1.4-1.1 2.5-2.5 2.5z" />
            </g>
        </g>
        <g>
            <text id="7.0" style="transform: matrix(1, 0, 0, 1, 23.5, 20);">
                <tspan x="-15.9" y="0" class="t">7,0</tspan>
            </text>
            <text id="6.9" style="transform: matrix(1, 0, 0, 1, 23.5, 31.667);">
                <tspan x="-15.9" y="0" class="t">6,9</tspan>
            </text>
            <text id="6.8" style="transform: matrix(1, 0, 0, 1, 23.5, 44.333);">
                <tspan x="-15.9" y="0" class="t">6,8</tspan>
            </text>
            <text id="6.7" style="transform: matrix(1, 0, 0, 1, 23.5, 56);">
                <tspan x="-15.9" y="0" class="t">6,7</tspan>
            </text>
            <text id="6.6" style="transform: matrix(1, 0, 0, 1, 23.5, 67.667);">
                <tspan x="-15.9" y="0" class="t">6,6</tspan>
            </text>
            <text id="6.5" style="transform: matrix(1, 0, 0, 1, 23.5, 79.333);">
                <tspan x="-15.9" y="0" class="t">6,5</tspan>
            </text>
            <text id="6.4" style="transform: matrix(1, 0, 0, 1, 23.5, 91);">
                <tspan x="-15.9" y="0" class="t">6,4</tspan>
            </text>
            <text id="6.3" style="transform: matrix(1, 0, 0, 1, 23.5, 102.667);">
                <tspan x="-15.9" y="0" class="t">6,3</tspan>
            </text>
            <text id="6.2" style="transform: matrix(1, 0, 0, 1, 23.5, 114.333);">
                <tspan x="-15.9" y="0" class="t">6,2</tspan>
            </text>
            <text id="6.1" style="transform: matrix(1, 0, 0, 1, 23.5, 126);">
                <tspan x="-15.9" y="0" class="t">6,1</tspan>
            </text>
            <text id="6.0" style="transform: matrix(1, 0, 0, 1, 23.5, 137.667);">
                <tspan x="-15.9" y="0" class="t">6,0</tspan>
            </text>
            <text id="5.9" style="transform: matrix(1, 0, 0, 1, 23.5, 149.333);">
                <tspan x="-15.9" y="0" class="t">5,9</tspan>
            </text>
            <text id="5.8" style="transform: matrix(1, 0, 0, 1, 23.5, 161);">
                <tspan x="-15.9" y="0" class="t">5,8</tspan>
            </text>
            <text id="5.7" style="transform: matrix(1, 0, 0, 1, 23.5, 172.667);">
                <tspan x="-15.9" y="0" class="t">5,7</tspan>
            </text>
            <text id="5.6" style="transform: matrix(1, 0, 0, 1, 23.5, 184.333);">
                <tspan x="-15.9" y="0" class="t">5,6</tspan>
            </text>
            <text id="5.5" style="transform: matrix(1, 0, 0, 1, 23.5, 196);">
                <tspan x="-15.9" y="0" class="t">5,5</tspan>
            </text>
            <text id="5.4" style="transform: matrix(1, 0, 0, 1, 23.5, 207.667);">
                <tspan x="-15.9" y="0" class="t">5,4</tspan>
            </text>
            <text id="5.3" style="transform: matrix(1, 0, 0, 1, 23.5, 219.333);">
                <tspan x="-15.9" y="0" class="t">5,3</tspan>
            </text>
            <text id="5.2" style="transform: matrix(1, 0, 0, 1, 23.5, 231);">
                <tspan x="-15.9" y="0" class="t">5,2</tspan>
            </text>
            <text id="5.1" style="transform: matrix(1, 0, 0, 1, 23.5, 242.667);">
                <tspan x="-15.9" y="0" class="t">5,1</tspan>
            </text>
            <text id="5.0" style="transform: matrix(1, 0, 0, 1, 23.5, 254.333);">
                <tspan x="-15.9" y="0" class="t">5,0</tspan>
            </text>
            <text id="4.9" style="transform: matrix(1, 0, 0, 1, 23.5, 266);">
                <tspan x="-15.9" y="0" class="t">4,9</tspan>
            </text>
            <text id="4.8" style="transform: matrix(1, 0, 0, 1, 23.5, 277.667);">
                <tspan x="-15.9" y="0" class="t">4,8</tspan>
            </text>
            <text id="4.7" style="transform: matrix(1, 0, 0, 1, 23.5, 289.333);">
                <tspan x="-15.9" y="0" class="t">4,7</tspan>
            </text>
            <text id="4.4" style="transform: matrix(1, 0, 0, 1, 23.5, 324.333);">
                <tspan x="-15.9" y="0" class="t">4,4</tspan>
            </text>
            <text id="4.3" style="transform: matrix(1, 0, 0, 1, 23.5, 336);">
                <tspan x="-15.9" y="0" class="t">4,3</tspan>
            </text>
            <text id="4.2" style="transform: matrix(1, 0, 0, 1, 23.5, 347.667);">
                <tspan x="-15.9" y="0" class="t">4,2</tspan>
            </text>
            <text id="4.0" style="transform: matrix(1, 0, 0, 1, 23.5, 371);">
                <tspan x="-15.9" y="0" class="t">4,0</tspan>
            </text>
        </g>
        <g>
            <text id="7.0" style="transform: matrix(1, 0, 0, 1, 756.5, 21);">
                <tspan x="0" y="0" class="t">7,0</tspan>
            </text>
            <text id="6.8" style="transform: matrix(1, 0, 0, 1, 756.5, 44.333);">
                <tspan x="0" y="0" class="t">6,8</tspan>
            </text>
            <text id="6.7" style="transform: matrix(1, 0, 0, 1, 756.5, 56);">
                <tspan x="0" y="0" class="t">6,7</tspan>
            </text>
            <text id="6.6" style="transform: matrix(1, 0, 0, 1, 756.5, 67.667);">
                <tspan x="0" y="0" class="t">6,6</tspan>
            </text>
            <text id="6.5" style="transform: matrix(1, 0, 0, 1, 756.5, 79.333);">
                <tspan x="0" y="0" class="t">6,5</tspan>
            </text>
            <text id="6.3" style="transform: matrix(1, 0, 0, 1, 756.5, 102.667);">
                <tspan x="0" y="0" class="t">6,3</tspan>
            </text>
            <text id="6.2" style="transform: matrix(1, 0, 0, 1, 756.5, 114.333);">
                <tspan x="0" y="0" class="t">6,2</tspan>
            </text>
            <text id="6.1" style="transform: matrix(1, 0, 0, 1, 756.5, 126);">
                <tspan x="0" y="0" class="t">6,1</tspan>
            </text>
            <text id="6.0" style="transform: matrix(1, 0, 0, 1, 756.5, 137.667);">
                <tspan x="0" y="0" class="t">6,0</tspan>
            </text>
            <text id="5.9" style="transform: matrix(1, 0, 0, 1, 756.5, 149.333);">
                <tspan x="0" y="0" class="t">5,9</tspan>
            </text>
            <text id="5.8" style="transform: matrix(1, 0, 0, 1, 756.5, 161);">
                <tspan x="0" y="0" class="t">5,8</tspan>
            </text>
            <text id="5.7" style="transform: matrix(1, 0, 0, 1, 756.5, 172.667);">
                <tspan x="0" y="0" class="t">5,7</tspan>
            </text>
            <text id="5.6" style="transform: matrix(1, 0, 0, 1, 756.5, 184.333);">
                <tspan x="0" y="0" class="t">5,6</tspan>
            </text>
            <text id="5.5" style="transform: matrix(1, 0, 0, 1, 756.5, 196);">
                <tspan x="0" y="0" class="t">5,5</tspan>
            </text>
            <text id="5.4" style="transform: matrix(1, 0, 0, 1, 756.5, 207.667);">
                <tspan x="0" y="0" class="t">5,4</tspan>
            </text>
            <text id="5.3" style="transform: matrix(1, 0, 0, 1, 756.5, 219.333);">
                <tspan x="0" y="0" class="t">5,3</tspan>
            </text>
            <text id="5.2" style="transform: matrix(1, 0, 0, 1, 756.5, 231);">
                <tspan x="0" y="0" class="t">5,2</tspan>
            </text>
            <text id="5.0" style="transform: matrix(1, 0, 0, 1, 756.5, 254.333);">
                <tspan x="0" y="0" class="t">5,0</tspan>
            </text>
            <text id="4.8" style="transform: matrix(1, 0, 0, 1, 756.5, 277.667);">
                <tspan x="0" y="0" class="t">4,8</tspan>
            </text>
            <text id="4.7" style="transform: matrix(1, 0, 0, 1, 756.5, 289.333);">
                <tspan x="0" y="0" class="t">4,7</tspan>
            </text>
            <text id="4.6" style="transform: matrix(1, 0, 0, 1, 756.5, 301);">
                <tspan x="0" y="0" class="t">4,6</tspan>
            </text>
            <text id="4.5" style="transform: matrix(1, 0, 0, 1, 756.5, 312.667);">
                <tspan x="0" y="0" class="t">4,5</tspan>
            </text>
            <text id="4.0" style="transform: matrix(1, 0, 0, 1, 756.5, 371);">
                <tspan x="0" y="0" class="t">4,0</tspan>
            </text>
        </g>
    </g>
</svg>